<svg width="44" height="36" viewBox="0 0 44 36" fill="none" xmlns="http://www.w3.org/2000/svg">
<path d="M17.3941 19.3261L16.4153 15.7369C16.2966 15.3018 15.9014 15 15.4505 15H10.4951C9.8445 15 9.36714 15.6114 9.52493 16.2425L10.5106 20.1852C10.6284 20.6564 11.0676 20.9748 11.552 20.9402L16.5006 20.5867C17.1291 20.5418 17.5599 19.934 17.3941 19.3261Z" fill="#595959"/>
<mask id="path-2-inside-1" fill="white">
<path d="M40.8563 28.5826C40.5397 28.5001 34.4996 26.5516 34.4996 26.5516C34.4996 26.5516 35.08 24.7696 35.1523 24.4321C35.2413 24.0361 35.3905 24.0271 35.5066 24.0121H35.5367L41.7622 23.9566C41.7622 23.9566 41.0643 27.4156 40.8563 28.5826ZM26.114 26.5066C26.114 26.5066 40.2865 32.2275 40.6392 32.3385C40.7794 33.225 41.4502 36 41.4502 36H35.4206C35.4206 36 34.9081 36.0075 34.8086 35.613C34.4062 34.0005 34.1333 32.5395 34.1152 32.484C34.0892 32.3786 34.0403 32.2801 33.9721 32.1954C33.9039 32.1107 33.818 32.0418 33.7203 31.9935C33.5816 31.923 23.3073 26.8516 23.3073 26.8516V25.1311H26.114V26.5066ZM37.6953 13.3022C37.6953 12.6842 37.6983 12.2642 37.7043 11.9837C38.6992 11.5038 41.8587 9.91527 42.5491 9.58377L42.5566 10.8963V10.9023C42.5611 10.9173 42.5611 10.9383 42.5611 10.9578C42.5611 11.1723 42.5114 11.6178 42.2597 11.7572C41.916 11.9507 38.4219 13.7597 37.6862 14.1482C37.6953 14.0282 37.6953 13.9022 37.6953 13.7732V13.7522V13.3022ZM0.0120811 13.2122C0.0241403 13.1612 0.0964975 13.1042 0.212566 13.0427C0.719049 13.0217 3.00726 12.9152 5.47184 12.7982C5.57284 14.6627 5.75222 17.8367 5.79744 18.0527C5.82307 18.1802 6.117 18.7427 6.51797 19.4552C6.41396 19.5242 6.32201 19.5797 6.25568 19.6202C6.01902 19.7507 5.56832 19.8152 5.36633 19.5932C5.23669 19.4432 4.49656 18.5912 3.63886 17.5967C2.41938 16.1807 1.03861 14.5817 0.709999 14.2172L0.462788 13.9517C0.123625 13.5857 1.90735e-05 13.4372 1.90735e-05 13.2857C-0.000237596 13.2607 0.00384487 13.2359 0.0120811 13.2122ZM27.3787 21.2701C27.9952 22.2091 28.8198 22.7311 29.7107 22.7311C30.1312 22.7311 30.5367 22.6111 30.906 22.3876V23.7106H23.3088V22.8106L27.1632 20.8952C27.2325 21.0257 27.2988 21.1501 27.3772 21.2701H27.3787ZM27.9093 20.9477C27.8408 20.8422 27.7774 20.7336 27.7194 20.6222C29.2976 19.8392 30.903 19.0427 32.3019 18.3527C32.1692 20.4677 31.0568 22.1221 29.7107 22.1221C29.0399 22.1221 28.4037 21.7096 27.9093 20.9477ZM21.6883 19.6787L21.8089 19.6157C22.0591 19.5107 31.215 15.1097 37.0758 12.2897L37.0742 13.2947V13.7747C37.0742 15.4097 36.5225 15.6302 36.2256 15.7472C35.8322 15.9062 23.3208 22.1221 21.426 23.0641C21.4291 23.0191 21.4291 22.9666 21.4291 22.9141L21.3446 19.8332C21.4803 19.7897 21.5994 19.7267 21.6883 19.6787ZM19.9322 18.2417C19.2449 17.3762 16.0628 13.7897 15.8954 13.5962C15.7959 13.4702 14.385 11.7632 11.9672 11.8817C10.2653 11.9657 4.59153 12.2357 1.74106 12.3647C2.12996 12.1952 2.45857 12.0557 2.45857 12.0557L6.65665 10.2408L7.953 9.68577L10.4658 8.60278C11.931 7.96379 13.4505 7.3083 14.9458 6.6738L17.6742 5.49482C18.9826 4.92182 20.3302 4.33533 21.6687 3.78483C22.2717 3.54484 24.4092 2.58935 24.988 2.33285C26.1909 1.80486 27.4345 1.25886 28.7263 0.864366C29.058 0.763867 30.5819 0.47587 30.9573 0.45487L34.5871 0.279372C36.268 0.200917 37.9488 0.117917 39.6293 0.0303748C41.2573 -0.0671242 42.0366 0.0318748 42.3094 0.900366C42.4632 1.38486 43.241 5.29232 43.5183 6.33481C43.5877 6.58981 43.6193 6.7983 43.6193 6.9678C43.6193 7.55879 43.2576 7.72229 42.8325 7.91579L42.6425 8.00429C42.4797 8.08379 21.4788 18.1367 21.0567 18.3272C21.0597 18.3272 21.0613 18.3227 21.0613 18.3227L21.0552 18.3272L20.8849 18.4112C20.6075 18.5612 20.3844 18.6782 19.9322 18.2402V18.2417ZM12.0003 12.4892C14.1197 12.3827 15.398 13.9562 15.4101 13.9727L15.4176 13.9802C15.4553 14.0252 19.3097 18.5507 19.9609 19.3622L19.9699 19.3787L19.982 19.3907C20.2518 19.6562 20.499 19.7957 20.7236 19.8557C20.7507 21.0061 20.805 22.9291 20.805 22.9291L20.808 22.9696C20.808 23.3896 20.6347 23.6296 19.8162 23.6896C19.3247 23.7271 11.5346 23.9446 10.9452 23.9371C10.4538 23.9296 10.0709 23.8921 9.64429 23.4031C9.1348 22.8211 6.56168 18.3212 6.40491 17.9237C6.36723 17.6612 6.21649 15.0212 6.09439 12.7682C8.51375 12.6542 10.9753 12.5432 12.0003 12.4892ZM9.71363 16.2872C9.91562 16.8857 10.7869 19.8257 10.7869 19.8257C10.7869 19.8257 10.8969 20.3417 11.1683 20.5082C11.4351 20.6882 11.9521 20.6417 11.9521 20.6417L13.4716 20.5802C14.3066 20.5532 16.3311 20.4722 16.5089 20.4692C16.6944 20.4692 17.0802 20.3837 17.1601 20.1842C17.2672 19.9292 17.1632 19.6112 17.0908 19.3562C16.9928 19.0157 16.8828 18.6752 16.7833 18.3347C16.5738 17.6177 16.3627 16.9067 16.1351 16.1942C16.0281 15.8402 15.9994 15.4862 15.6784 15.2252C15.3437 14.9462 14.9247 14.9837 14.5177 14.9897C14.1258 14.9972 13.7293 15.0017 13.3374 15.0137C12.5113 15.0407 11.6808 15.0782 10.8502 15.1142C10.6015 15.1292 10.3528 15.1382 10.104 15.1517C9.43477 15.1862 9.51164 15.6857 9.71213 16.2872H9.71363ZM30.9075 25.1326V26.0836L41.6929 29.6956L41.7502 29.3731C42.1044 27.4336 42.6425 24.3661 42.73 23.9551H43.7143V36H42.534C42.4029 35.2005 41.7125 32.265 41.7049 32.22L41.6748 32.04C41.6748 32.04 27.1526 26.2051 26.7336 26.0716V25.1311H30.906L30.9075 25.1326Z"/>
</mask>
<path d="M40.8563 28.5826C40.5397 28.5001 34.4996 26.5516 34.4996 26.5516C34.4996 26.5516 35.08 24.7696 35.1523 24.4321C35.2413 24.0361 35.3905 24.0271 35.5066 24.0121H35.5367L41.7622 23.9566C41.7622 23.9566 41.0643 27.4156 40.8563 28.5826ZM26.114 26.5066C26.114 26.5066 40.2865 32.2275 40.6392 32.3385C40.7794 33.225 41.4502 36 41.4502 36H35.4206C35.4206 36 34.9081 36.0075 34.8086 35.613C34.4062 34.0005 34.1333 32.5395 34.1152 32.484C34.0892 32.3786 34.0403 32.2801 33.9721 32.1954C33.9039 32.1107 33.818 32.0418 33.7203 31.9935C33.5816 31.923 23.3073 26.8516 23.3073 26.8516V25.1311H26.114V26.5066ZM37.6953 13.3022C37.6953 12.6842 37.6983 12.2642 37.7043 11.9837C38.6992 11.5038 41.8587 9.91527 42.5491 9.58377L42.5566 10.8963V10.9023C42.5611 10.9173 42.5611 10.9383 42.5611 10.9578C42.5611 11.1723 42.5114 11.6178 42.2597 11.7572C41.916 11.9507 38.4219 13.7597 37.6862 14.1482C37.6953 14.0282 37.6953 13.9022 37.6953 13.7732V13.7522V13.3022ZM0.0120811 13.2122C0.0241403 13.1612 0.0964975 13.1042 0.212566 13.0427C0.719049 13.0217 3.00726 12.9152 5.47184 12.7982C5.57284 14.6627 5.75222 17.8367 5.79744 18.0527C5.82307 18.1802 6.117 18.7427 6.51797 19.4552C6.41396 19.5242 6.32201 19.5797 6.25568 19.6202C6.01902 19.7507 5.56832 19.8152 5.36633 19.5932C5.23669 19.4432 4.49656 18.5912 3.63886 17.5967C2.41938 16.1807 1.03861 14.5817 0.709999 14.2172L0.462788 13.9517C0.123625 13.5857 1.90735e-05 13.4372 1.90735e-05 13.2857C-0.000237596 13.2607 0.00384487 13.2359 0.0120811 13.2122ZM27.3787 21.2701C27.9952 22.2091 28.8198 22.7311 29.7107 22.7311C30.1312 22.7311 30.5367 22.6111 30.906 22.3876V23.7106H23.3088V22.8106L27.1632 20.8952C27.2325 21.0257 27.2988 21.1501 27.3772 21.2701H27.3787ZM27.9093 20.9477C27.8408 20.8422 27.7774 20.7336 27.7194 20.6222C29.2976 19.8392 30.903 19.0427 32.3019 18.3527C32.1692 20.4677 31.0568 22.1221 29.7107 22.1221C29.0399 22.1221 28.4037 21.7096 27.9093 20.9477ZM21.6883 19.6787L21.8089 19.6157C22.0591 19.5107 31.215 15.1097 37.0758 12.2897L37.0742 13.2947V13.7747C37.0742 15.4097 36.5225 15.6302 36.2256 15.7472C35.8322 15.9062 23.3208 22.1221 21.426 23.0641C21.4291 23.0191 21.4291 22.9666 21.4291 22.9141L21.3446 19.8332C21.4803 19.7897 21.5994 19.7267 21.6883 19.6787ZM19.9322 18.2417C19.2449 17.3762 16.0628 13.7897 15.8954 13.5962C15.7959 13.4702 14.385 11.7632 11.9672 11.8817C10.2653 11.9657 4.59153 12.2357 1.74106 12.3647C2.12996 12.1952 2.45857 12.0557 2.45857 12.0557L6.65665 10.2408L7.953 9.68577L10.4658 8.60278C11.931 7.96379 13.4505 7.3083 14.9458 6.6738L17.6742 5.49482C18.9826 4.92182 20.3302 4.33533 21.6687 3.78483C22.2717 3.54484 24.4092 2.58935 24.988 2.33285C26.1909 1.80486 27.4345 1.25886 28.7263 0.864366C29.058 0.763867 30.5819 0.47587 30.9573 0.45487L34.5871 0.279372C36.268 0.200917 37.9488 0.117917 39.6293 0.0303748C41.2573 -0.0671242 42.0366 0.0318748 42.3094 0.900366C42.4632 1.38486 43.241 5.29232 43.5183 6.33481C43.5877 6.58981 43.6193 6.7983 43.6193 6.9678C43.6193 7.55879 43.2576 7.72229 42.8325 7.91579L42.6425 8.00429C42.4797 8.08379 21.4788 18.1367 21.0567 18.3272C21.0597 18.3272 21.0613 18.3227 21.0613 18.3227L21.0552 18.3272L20.8849 18.4112C20.6075 18.5612 20.3844 18.6782 19.9322 18.2402V18.2417ZM12.0003 12.4892C14.1197 12.3827 15.398 13.9562 15.4101 13.9727L15.4176 13.9802C15.4553 14.0252 19.3097 18.5507 19.9609 19.3622L19.9699 19.3787L19.982 19.3907C20.2518 19.6562 20.499 19.7957 20.7236 19.8557C20.7507 21.0061 20.805 22.9291 20.805 22.9291L20.808 22.9696C20.808 23.3896 20.6347 23.6296 19.8162 23.6896C19.3247 23.7271 11.5346 23.9446 10.9452 23.9371C10.4538 23.9296 10.0709 23.8921 9.64429 23.4031C9.1348 22.8211 6.56168 18.3212 6.40491 17.9237C6.36723 17.6612 6.21649 15.0212 6.09439 12.7682C8.51375 12.6542 10.9753 12.5432 12.0003 12.4892ZM9.71363 16.2872C9.91562 16.8857 10.7869 19.8257 10.7869 19.8257C10.7869 19.8257 10.8969 20.3417 11.1683 20.5082C11.4351 20.6882 11.9521 20.6417 11.9521 20.6417L13.4716 20.5802C14.3066 20.5532 16.3311 20.4722 16.5089 20.4692C16.6944 20.4692 17.0802 20.3837 17.1601 20.1842C17.2672 19.9292 17.1632 19.6112 17.0908 19.3562C16.9928 19.0157 16.8828 18.6752 16.7833 18.3347C16.5738 17.6177 16.3627 16.9067 16.1351 16.1942C16.0281 15.8402 15.9994 15.4862 15.6784 15.2252C15.3437 14.9462 14.9247 14.9837 14.5177 14.9897C14.1258 14.9972 13.7293 15.0017 13.3374 15.0137C12.5113 15.0407 11.6808 15.0782 10.8502 15.1142C10.6015 15.1292 10.3528 15.1382 10.104 15.1517C9.43477 15.1862 9.51164 15.6857 9.71213 16.2872H9.71363ZM30.9075 25.1326V26.0836L41.6929 29.6956L41.7502 29.3731C42.1044 27.4336 42.6425 24.3661 42.73 23.9551H43.7143V36H42.534C42.4029 35.2005 41.7125 32.265 41.7049 32.22L41.6748 32.04C41.6748 32.04 27.1526 26.2051 26.7336 26.0716V25.1311H30.906L30.9075 25.1326Z" fill="url(#paint0_linear)"/>
<path d="M40.8563 28.5826C40.5397 28.5001 34.4996 26.5516 34.4996 26.5516C34.4996 26.5516 35.08 24.7696 35.1523 24.4321C35.2413 24.0361 35.3905 24.0271 35.5066 24.0121H35.5367L41.7622 23.9566C41.7622 23.9566 41.0643 27.4156 40.8563 28.5826ZM26.114 26.5066C26.114 26.5066 40.2865 32.2275 40.6392 32.3385C40.7794 33.225 41.4502 36 41.4502 36H35.4206C35.4206 36 34.9081 36.0075 34.8086 35.613C34.4062 34.0005 34.1333 32.5395 34.1152 32.484C34.0892 32.3786 34.0403 32.2801 33.9721 32.1954C33.9039 32.1107 33.818 32.0418 33.7203 31.9935C33.5816 31.923 23.3073 26.8516 23.3073 26.8516V25.1311H26.114V26.5066ZM37.6953 13.3022C37.6953 12.6842 37.6983 12.2642 37.7043 11.9837C38.6992 11.5038 41.8587 9.91527 42.5491 9.58377L42.5566 10.8963V10.9023C42.5611 10.9173 42.5611 10.9383 42.5611 10.9578C42.5611 11.1723 42.5114 11.6178 42.2597 11.7572C41.916 11.9507 38.4219 13.7597 37.6862 14.1482C37.6953 14.0282 37.6953 13.9022 37.6953 13.7732V13.7522V13.3022ZM0.0120811 13.2122C0.0241403 13.1612 0.0964975 13.1042 0.212566 13.0427C0.719049 13.0217 3.00726 12.9152 5.47184 12.7982C5.57284 14.6627 5.75222 17.8367 5.79744 18.0527C5.82307 18.1802 6.117 18.7427 6.51797 19.4552C6.41396 19.5242 6.32201 19.5797 6.25568 19.6202C6.01902 19.7507 5.56832 19.8152 5.36633 19.5932C5.23669 19.4432 4.49656 18.5912 3.63886 17.5967C2.41938 16.1807 1.03861 14.5817 0.709999 14.2172L0.462788 13.9517C0.123625 13.5857 1.90735e-05 13.4372 1.90735e-05 13.2857C-0.000237596 13.2607 0.00384487 13.2359 0.0120811 13.2122ZM27.3787 21.2701C27.9952 22.2091 28.8198 22.7311 29.7107 22.7311C30.1312 22.7311 30.5367 22.6111 30.906 22.3876V23.7106H23.3088V22.8106L27.1632 20.8952C27.2325 21.0257 27.2988 21.1501 27.3772 21.2701H27.3787ZM27.9093 20.9477C27.8408 20.8422 27.7774 20.7336 27.7194 20.6222C29.2976 19.8392 30.903 19.0427 32.3019 18.3527C32.1692 20.4677 31.0568 22.1221 29.7107 22.1221C29.0399 22.1221 28.4037 21.7096 27.9093 20.9477ZM21.6883 19.6787L21.8089 19.6157C22.0591 19.5107 31.215 15.1097 37.0758 12.2897L37.0742 13.2947V13.7747C37.0742 15.4097 36.5225 15.6302 36.2256 15.7472C35.8322 15.9062 23.3208 22.1221 21.426 23.0641C21.4291 23.0191 21.4291 22.9666 21.4291 22.9141L21.3446 19.8332C21.4803 19.7897 21.5994 19.7267 21.6883 19.6787ZM19.9322 18.2417C19.2449 17.3762 16.0628 13.7897 15.8954 13.5962C15.7959 13.4702 14.385 11.7632 11.9672 11.8817C10.2653 11.9657 4.59153 12.2357 1.74106 12.3647C2.12996 12.1952 2.45857 12.0557 2.45857 12.0557L6.65665 10.2408L7.953 9.68577L10.4658 8.60278C11.931 7.96379 13.4505 7.3083 14.9458 6.6738L17.6742 5.49482C18.9826 4.92182 20.3302 4.33533 21.6687 3.78483C22.2717 3.54484 24.4092 2.58935 24.988 2.33285C26.1909 1.80486 27.4345 1.25886 28.7263 0.864366C29.058 0.763867 30.5819 0.47587 30.9573 0.45487L34.5871 0.279372C36.268 0.200917 37.9488 0.117917 39.6293 0.0303748C41.2573 -0.0671242 42.0366 0.0318748 42.3094 0.900366C42.4632 1.38486 43.241 5.29232 43.5183 6.33481C43.5877 6.58981 43.6193 6.7983 43.6193 6.9678C43.6193 7.55879 43.2576 7.72229 42.8325 7.91579L42.6425 8.00429C42.4797 8.08379 21.4788 18.1367 21.0567 18.3272C21.0597 18.3272 21.0613 18.3227 21.0613 18.3227L21.0552 18.3272L20.8849 18.4112C20.6075 18.5612 20.3844 18.6782 19.9322 18.2402V18.2417ZM12.0003 12.4892C14.1197 12.3827 15.398 13.9562 15.4101 13.9727L15.4176 13.9802C15.4553 14.0252 19.3097 18.5507 19.9609 19.3622L19.9699 19.3787L19.982 19.3907C20.2518 19.6562 20.499 19.7957 20.7236 19.8557C20.7507 21.0061 20.805 22.9291 20.805 22.9291L20.808 22.9696C20.808 23.3896 20.6347 23.6296 19.8162 23.6896C19.3247 23.7271 11.5346 23.9446 10.9452 23.9371C10.4538 23.9296 10.0709 23.8921 9.64429 23.4031C9.1348 22.8211 6.56168 18.3212 6.40491 17.9237C6.36723 17.6612 6.21649 15.0212 6.09439 12.7682C8.51375 12.6542 10.9753 12.5432 12.0003 12.4892ZM9.71363 16.2872C9.91562 16.8857 10.7869 19.8257 10.7869 19.8257C10.7869 19.8257 10.8969 20.3417 11.1683 20.5082C11.4351 20.6882 11.9521 20.6417 11.9521 20.6417L13.4716 20.5802C14.3066 20.5532 16.3311 20.4722 16.5089 20.4692C16.6944 20.4692 17.0802 20.3837 17.1601 20.1842C17.2672 19.9292 17.1632 19.6112 17.0908 19.3562C16.9928 19.0157 16.8828 18.6752 16.7833 18.3347C16.5738 17.6177 16.3627 16.9067 16.1351 16.1942C16.0281 15.8402 15.9994 15.4862 15.6784 15.2252C15.3437 14.9462 14.9247 14.9837 14.5177 14.9897C14.1258 14.9972 13.7293 15.0017 13.3374 15.0137C12.5113 15.0407 11.6808 15.0782 10.8502 15.1142C10.6015 15.1292 10.3528 15.1382 10.104 15.1517C9.43477 15.1862 9.51164 15.6857 9.71213 16.2872H9.71363ZM30.9075 25.1326V26.0836L41.6929 29.6956L41.7502 29.3731C42.1044 27.4336 42.6425 24.3661 42.73 23.9551H43.7143V36H42.534C42.4029 35.2005 41.7125 32.265 41.7049 32.22L41.6748 32.04C41.6748 32.04 27.1526 26.2051 26.7336 26.0716V25.1311H30.906L30.9075 25.1326Z" fill="url(#paint1_linear)"/>
<path d="M40.8563 28.5826C40.5397 28.5001 34.4996 26.5516 34.4996 26.5516C34.4996 26.5516 35.08 24.7696 35.1523 24.4321C35.2413 24.0361 35.3905 24.0271 35.5066 24.0121H35.5367L41.7622 23.9566C41.7622 23.9566 41.0643 27.4156 40.8563 28.5826ZM26.114 26.5066C26.114 26.5066 40.2865 32.2275 40.6392 32.3385C40.7794 33.225 41.4502 36 41.4502 36H35.4206C35.4206 36 34.9081 36.0075 34.8086 35.613C34.4062 34.0005 34.1333 32.5395 34.1152 32.484C34.0892 32.3786 34.0403 32.2801 33.9721 32.1954C33.9039 32.1107 33.818 32.0418 33.7203 31.9935C33.5816 31.923 23.3073 26.8516 23.3073 26.8516V25.1311H26.114V26.5066ZM37.6953 13.3022C37.6953 12.6842 37.6983 12.2642 37.7043 11.9837C38.6992 11.5038 41.8587 9.91527 42.5491 9.58377L42.5566 10.8963V10.9023C42.5611 10.9173 42.5611 10.9383 42.5611 10.9578C42.5611 11.1723 42.5114 11.6178 42.2597 11.7572C41.916 11.9507 38.4219 13.7597 37.6862 14.1482C37.6953 14.0282 37.6953 13.9022 37.6953 13.7732V13.7522V13.3022ZM0.0120811 13.2122C0.0241403 13.1612 0.0964975 13.1042 0.212566 13.0427C0.719049 13.0217 3.00726 12.9152 5.47184 12.7982C5.57284 14.6627 5.75222 17.8367 5.79744 18.0527C5.82307 18.1802 6.117 18.7427 6.51797 19.4552C6.41396 19.5242 6.32201 19.5797 6.25568 19.6202C6.01902 19.7507 5.56832 19.8152 5.36633 19.5932C5.23669 19.4432 4.49656 18.5912 3.63886 17.5967C2.41938 16.1807 1.03861 14.5817 0.709999 14.2172L0.462788 13.9517C0.123625 13.5857 1.90735e-05 13.4372 1.90735e-05 13.2857C-0.000237596 13.2607 0.00384487 13.2359 0.0120811 13.2122ZM27.3787 21.2701C27.9952 22.2091 28.8198 22.7311 29.7107 22.7311C30.1312 22.7311 30.5367 22.6111 30.906 22.3876V23.7106H23.3088V22.8106L27.1632 20.8952C27.2325 21.0257 27.2988 21.1501 27.3772 21.2701H27.3787ZM27.9093 20.9477C27.8408 20.8422 27.7774 20.7336 27.7194 20.6222C29.2976 19.8392 30.903 19.0427 32.3019 18.3527C32.1692 20.4677 31.0568 22.1221 29.7107 22.1221C29.0399 22.1221 28.4037 21.7096 27.9093 20.9477ZM21.6883 19.6787L21.8089 19.6157C22.0591 19.5107 31.215 15.1097 37.0758 12.2897L37.0742 13.2947V13.7747C37.0742 15.4097 36.5225 15.6302 36.2256 15.7472C35.8322 15.9062 23.3208 22.1221 21.426 23.0641C21.4291 23.0191 21.4291 22.9666 21.4291 22.9141L21.3446 19.8332C21.4803 19.7897 21.5994 19.7267 21.6883 19.6787ZM19.9322 18.2417C19.2449 17.3762 16.0628 13.7897 15.8954 13.5962C15.7959 13.4702 14.385 11.7632 11.9672 11.8817C10.2653 11.9657 4.59153 12.2357 1.74106 12.3647C2.12996 12.1952 2.45857 12.0557 2.45857 12.0557L6.65665 10.2408L7.953 9.68577L10.4658 8.60278C11.931 7.96379 13.4505 7.3083 14.9458 6.6738L17.6742 5.49482C18.9826 4.92182 20.3302 4.33533 21.6687 3.78483C22.2717 3.54484 24.4092 2.58935 24.988 2.33285C26.1909 1.80486 27.4345 1.25886 28.7263 0.864366C29.058 0.763867 30.5819 0.47587 30.9573 0.45487L34.5871 0.279372C36.268 0.200917 37.9488 0.117917 39.6293 0.0303748C41.2573 -0.0671242 42.0366 0.0318748 42.3094 0.900366C42.4632 1.38486 43.241 5.29232 43.5183 6.33481C43.5877 6.58981 43.6193 6.7983 43.6193 6.9678C43.6193 7.55879 43.2576 7.72229 42.8325 7.91579L42.6425 8.00429C42.4797 8.08379 21.4788 18.1367 21.0567 18.3272C21.0597 18.3272 21.0613 18.3227 21.0613 18.3227L21.0552 18.3272L20.8849 18.4112C20.6075 18.5612 20.3844 18.6782 19.9322 18.2402V18.2417ZM12.0003 12.4892C14.1197 12.3827 15.398 13.9562 15.4101 13.9727L15.4176 13.9802C15.4553 14.0252 19.3097 18.5507 19.9609 19.3622L19.9699 19.3787L19.982 19.3907C20.2518 19.6562 20.499 19.7957 20.7236 19.8557C20.7507 21.0061 20.805 22.9291 20.805 22.9291L20.808 22.9696C20.808 23.3896 20.6347 23.6296 19.8162 23.6896C19.3247 23.7271 11.5346 23.9446 10.9452 23.9371C10.4538 23.9296 10.0709 23.8921 9.64429 23.4031C9.1348 22.8211 6.56168 18.3212 6.40491 17.9237C6.36723 17.6612 6.21649 15.0212 6.09439 12.7682C8.51375 12.6542 10.9753 12.5432 12.0003 12.4892ZM9.71363 16.2872C9.91562 16.8857 10.7869 19.8257 10.7869 19.8257C10.7869 19.8257 10.8969 20.3417 11.1683 20.5082C11.4351 20.6882 11.9521 20.6417 11.9521 20.6417L13.4716 20.5802C14.3066 20.5532 16.3311 20.4722 16.5089 20.4692C16.6944 20.4692 17.0802 20.3837 17.1601 20.1842C17.2672 19.9292 17.1632 19.6112 17.0908 19.3562C16.9928 19.0157 16.8828 18.6752 16.7833 18.3347C16.5738 17.6177 16.3627 16.9067 16.1351 16.1942C16.0281 15.8402 15.9994 15.4862 15.6784 15.2252C15.3437 14.9462 14.9247 14.9837 14.5177 14.9897C14.1258 14.9972 13.7293 15.0017 13.3374 15.0137C12.5113 15.0407 11.6808 15.0782 10.8502 15.1142C10.6015 15.1292 10.3528 15.1382 10.104 15.1517C9.43477 15.1862 9.51164 15.6857 9.71213 16.2872H9.71363ZM30.9075 25.1326V26.0836L41.6929 29.6956L41.7502 29.3731C42.1044 27.4336 42.6425 24.3661 42.73 23.9551H43.7143V36H42.534C42.4029 35.2005 41.7125 32.265 41.7049 32.22L41.6748 32.04C41.6748 32.04 27.1526 26.2051 26.7336 26.0716V25.1311H30.906L30.9075 25.1326Z" stroke="#BFBFBF" stroke-width="0.8" mask="url(#path-2-inside-1)"/>
<defs>
<linearGradient id="paint0_linear" x1="40.6645" y1="34.7442" x2="11.9409" y2="-3.08191" gradientUnits="userSpaceOnUse">
<stop stop-color="#777777"/>
<stop offset="0.53368" stop-color="#F9F9F9"/>
<stop offset="1" stop-color="white"/>
</linearGradient>
<linearGradient id="paint1_linear" x1="23.7143" y1="2.5" x2="26.7143" y2="10.5" gradientUnits="userSpaceOnUse">
<stop stop-color="#BEBEBE"/>
<stop offset="1" stop-color="white" stop-opacity="0"/>
</linearGradient>
</defs>
</svg>
