<svg width="81" height="66" viewBox="0 0 81 66" fill="none" xmlns="http://www.w3.org/2000/svg">
<path d="M32.1781 35.406L30.3761 28.8593C30.1551 28.0563 29.4249 27.5 28.5921 27.5H19.4248C18.2194 27.5 17.3358 28.6342 17.6307 29.803L19.446 36.9976C19.6654 37.8669 20.4764 38.4539 21.3708 38.3906L30.5248 37.7428C31.6899 37.6603 32.4881 36.5322 32.1781 35.406Z" fill="#595959"/>
<mask id="path-2-inside-1" fill="white">
<path d="M75.5978 52.4014C75.0121 52.2501 63.8359 48.6779 63.8359 48.6779C63.8359 48.6779 64.9097 45.411 65.0436 44.7922C65.2082 44.0662 65.4843 44.0497 65.6991 44.0222H65.7548L77.2741 43.9205C77.2741 43.9205 75.9827 50.2619 75.5978 52.4014ZM48.3197 48.5954C48.3197 48.5954 74.5435 59.0838 75.1962 59.2873C75.4556 60.9125 76.6968 66 76.6968 66H65.5401C65.5401 66 64.5918 66.0137 64.4077 65.2905C63.663 62.3343 63.1581 59.6558 63.1247 59.5541C63.0764 59.3608 62.9861 59.1803 62.8599 59.025C62.7337 58.8697 62.5746 58.7434 62.3939 58.6548C62.1373 58.5256 43.1263 49.2279 43.1263 49.2279V46.0737H48.3197V48.5954ZM69.7489 24.3874C69.7489 23.2544 69.7545 22.4844 69.7657 21.9702C71.6065 21.0902 77.4526 18.178 78.7301 17.5702L78.744 19.9765V19.9875C78.7524 20.015 78.7524 20.0535 78.7524 20.0892C78.7524 20.4825 78.6603 21.2992 78.1946 21.555C77.5586 21.9097 71.0933 25.2262 69.7322 25.9384C69.7489 25.7184 69.7489 25.4874 69.7489 25.2509V25.2124V24.3874ZM0.0223923 24.2224C0.0447057 24.1289 0.17859 24.0244 0.393356 23.9117C1.33052 23.8732 5.56448 23.6779 10.1248 23.4634C10.3117 26.8817 10.6436 32.7006 10.7272 33.0966C10.7747 33.3303 11.3185 34.3616 12.0605 35.6678C11.868 35.7943 11.6979 35.8961 11.5751 35.9703C11.1372 36.2096 10.3033 36.3278 9.92953 35.9208C9.68967 35.6458 8.32019 34.0838 6.73315 32.2606C4.47671 29.6646 1.92181 26.7332 1.31377 26.0649L0.856354 25.5782C0.22879 24.9072 7.62939e-05 24.6349 7.62939e-05 24.3572C-0.00039863 24.3113 0.00715241 24.2657 0.0223923 24.2224ZM50.6598 38.9953C51.8006 40.7168 53.3263 41.6737 54.9747 41.6737C55.7529 41.6737 56.5032 41.4537 57.1865 41.044V43.4695H43.1291V41.8195L50.261 38.3078C50.3893 38.547 50.512 38.7753 50.657 38.9953H50.6598ZM51.6416 38.404C51.5148 38.2108 51.3976 38.0116 51.2902 37.8073C54.2105 36.3718 57.1809 34.9116 59.7693 33.6466C59.5238 37.524 57.4654 40.5573 54.9747 40.5573C53.7335 40.5573 52.5565 39.801 51.6416 38.404ZM40.1307 36.0776L40.3538 35.9621C40.8168 35.7696 57.7583 27.7011 68.6026 22.5312L68.5998 24.3737V25.2537C68.5998 28.2511 67.579 28.6554 67.0295 28.8699C66.3015 29.1614 43.1514 40.5573 39.6454 42.2842C39.651 42.2017 39.651 42.1055 39.651 42.0092L39.4948 36.3608C39.7458 36.281 39.9661 36.1656 40.1307 36.0776ZM36.8813 33.4431C35.6095 31.8563 29.7215 25.2812 29.4119 24.9264C29.2278 24.6954 26.6172 21.566 22.1433 21.7832C18.9944 21.9372 8.49591 22.4322 3.22158 22.6687C3.94119 22.358 4.54922 22.1022 4.54922 22.1022L12.3171 18.7747L14.7158 17.7572L19.3653 15.7718C22.0764 14.6003 24.8879 13.3985 27.6547 12.2353L32.7031 10.0738C35.1241 9.02334 37.6177 7.9481 40.0944 6.93886C41.2101 6.49887 45.1652 4.74714 46.2362 4.27689C48.462 3.3089 50.763 2.30791 53.1534 1.58467C53.767 1.40042 56.5868 0.872428 57.2813 0.833929L63.9977 0.512182C67.108 0.368347 70.2179 0.216182 73.3274 0.0556871C76.3398 -0.123061 77.7818 0.0584372 78.2866 1.65067C78.5711 2.53891 80.0103 9.70258 80.5235 11.6138C80.6518 12.0813 80.7104 12.4636 80.7104 12.7743C80.7104 13.8578 80.041 14.1575 79.2544 14.5123L78.903 14.6745C78.6018 14.8203 39.743 33.2506 38.962 33.5998C38.9676 33.5998 38.9704 33.5916 38.9704 33.5916L38.9593 33.5998L38.6441 33.7538C38.1309 34.0288 37.7181 34.2433 36.8813 33.4403V33.4431ZM22.2047 22.8969C26.1263 22.7017 28.4915 25.5864 28.5138 25.6167L28.5277 25.6304C28.5975 25.7129 35.7294 34.0096 36.9343 35.4973L36.951 35.5276L36.9734 35.5496C37.4726 36.0363 37.9301 36.292 38.3456 36.402C38.3958 38.5113 38.4963 42.0367 38.4963 42.0367L38.5018 42.111C38.5018 42.881 38.1811 43.321 36.6666 43.431C35.7573 43.4997 21.3428 43.8985 20.2523 43.8847C19.343 43.871 18.6345 43.8022 17.8452 42.9057C16.9025 41.8387 12.1413 33.5888 11.8513 32.8601C11.7815 32.3788 11.5026 27.5389 11.2767 23.4084C15.7533 23.1994 20.3081 22.9959 22.2047 22.8969ZM17.9735 29.8599C18.3473 30.9571 19.9594 36.347 19.9594 36.347C19.9594 36.347 20.163 37.293 20.6651 37.5983C21.1588 37.9283 22.1154 37.843 22.1154 37.843L24.9269 37.7303C26.4721 37.6808 30.218 37.5323 30.5471 37.5268C30.8902 37.5268 31.6042 37.37 31.752 37.0043C31.9501 36.5368 31.7576 35.9538 31.6237 35.4863C31.4424 34.8621 31.2388 34.2378 31.0547 33.6136C30.667 32.2991 30.2766 30.9956 29.8554 29.6894C29.6574 29.0404 29.6044 28.3914 29.0103 27.9129C28.3911 27.4014 27.6157 27.4701 26.8626 27.4811C26.1374 27.4949 25.4039 27.5031 24.6787 27.5251C23.1502 27.5746 21.6134 27.6434 20.0765 27.7094C19.6163 27.7369 19.1561 27.7534 18.6959 27.7781C17.4575 27.8414 17.5998 28.7571 17.9707 29.8599H17.9735ZM57.1893 46.0764V47.8199L77.1458 54.4419L77.2518 53.8506C77.9073 50.2949 78.903 44.6712 79.0648 43.9177H80.8861V66H78.7022C78.4595 64.5343 77.1821 59.1526 77.1681 59.0701L77.1124 58.7401C77.1124 58.7401 50.2415 48.0427 49.4661 47.7979V46.0737H57.1865L57.1893 46.0764Z"/>
</mask>
<path d="M75.5978 52.4014C75.0121 52.2501 63.8359 48.6779 63.8359 48.6779C63.8359 48.6779 64.9097 45.411 65.0436 44.7922C65.2082 44.0662 65.4843 44.0497 65.6991 44.0222H65.7548L77.2741 43.9205C77.2741 43.9205 75.9827 50.2619 75.5978 52.4014ZM48.3197 48.5954C48.3197 48.5954 74.5435 59.0838 75.1962 59.2873C75.4556 60.9125 76.6968 66 76.6968 66H65.5401C65.5401 66 64.5918 66.0137 64.4077 65.2905C63.663 62.3343 63.1581 59.6558 63.1247 59.5541C63.0764 59.3608 62.9861 59.1803 62.8599 59.025C62.7337 58.8697 62.5746 58.7434 62.3939 58.6548C62.1373 58.5256 43.1263 49.2279 43.1263 49.2279V46.0737H48.3197V48.5954ZM69.7489 24.3874C69.7489 23.2544 69.7545 22.4844 69.7657 21.9702C71.6065 21.0902 77.4526 18.178 78.7301 17.5702L78.744 19.9765V19.9875C78.7524 20.015 78.7524 20.0535 78.7524 20.0892C78.7524 20.4825 78.6603 21.2992 78.1946 21.555C77.5586 21.9097 71.0933 25.2262 69.7322 25.9384C69.7489 25.7184 69.7489 25.4874 69.7489 25.2509V25.2124V24.3874ZM0.0223923 24.2224C0.0447057 24.1289 0.17859 24.0244 0.393356 23.9117C1.33052 23.8732 5.56448 23.6779 10.1248 23.4634C10.3117 26.8817 10.6436 32.7006 10.7272 33.0966C10.7747 33.3303 11.3185 34.3616 12.0605 35.6678C11.868 35.7943 11.6979 35.8961 11.5751 35.9703C11.1372 36.2096 10.3033 36.3278 9.92953 35.9208C9.68967 35.6458 8.32019 34.0838 6.73315 32.2606C4.47671 29.6646 1.92181 26.7332 1.31377 26.0649L0.856354 25.5782C0.22879 24.9072 7.62939e-05 24.6349 7.62939e-05 24.3572C-0.00039863 24.3113 0.00715241 24.2657 0.0223923 24.2224ZM50.6598 38.9953C51.8006 40.7168 53.3263 41.6737 54.9747 41.6737C55.7529 41.6737 56.5032 41.4537 57.1865 41.044V43.4695H43.1291V41.8195L50.261 38.3078C50.3893 38.547 50.512 38.7753 50.657 38.9953H50.6598ZM51.6416 38.404C51.5148 38.2108 51.3976 38.0116 51.2902 37.8073C54.2105 36.3718 57.1809 34.9116 59.7693 33.6466C59.5238 37.524 57.4654 40.5573 54.9747 40.5573C53.7335 40.5573 52.5565 39.801 51.6416 38.404ZM40.1307 36.0776L40.3538 35.9621C40.8168 35.7696 57.7583 27.7011 68.6026 22.5312L68.5998 24.3737V25.2537C68.5998 28.2511 67.579 28.6554 67.0295 28.8699C66.3015 29.1614 43.1514 40.5573 39.6454 42.2842C39.651 42.2017 39.651 42.1055 39.651 42.0092L39.4948 36.3608C39.7458 36.281 39.9661 36.1656 40.1307 36.0776ZM36.8813 33.4431C35.6095 31.8563 29.7215 25.2812 29.4119 24.9264C29.2278 24.6954 26.6172 21.566 22.1433 21.7832C18.9944 21.9372 8.49591 22.4322 3.22158 22.6687C3.94119 22.358 4.54922 22.1022 4.54922 22.1022L12.3171 18.7747L14.7158 17.7572L19.3653 15.7718C22.0764 14.6003 24.8879 13.3985 27.6547 12.2353L32.7031 10.0738C35.1241 9.02334 37.6177 7.9481 40.0944 6.93886C41.2101 6.49887 45.1652 4.74714 46.2362 4.27689C48.462 3.3089 50.763 2.30791 53.1534 1.58467C53.767 1.40042 56.5868 0.872428 57.2813 0.833929L63.9977 0.512182C67.108 0.368347 70.2179 0.216182 73.3274 0.0556871C76.3398 -0.123061 77.7818 0.0584372 78.2866 1.65067C78.5711 2.53891 80.0103 9.70258 80.5235 11.6138C80.6518 12.0813 80.7104 12.4636 80.7104 12.7743C80.7104 13.8578 80.041 14.1575 79.2544 14.5123L78.903 14.6745C78.6018 14.8203 39.743 33.2506 38.962 33.5998C38.9676 33.5998 38.9704 33.5916 38.9704 33.5916L38.9593 33.5998L38.6441 33.7538C38.1309 34.0288 37.7181 34.2433 36.8813 33.4403V33.4431ZM22.2047 22.8969C26.1263 22.7017 28.4915 25.5864 28.5138 25.6167L28.5277 25.6304C28.5975 25.7129 35.7294 34.0096 36.9343 35.4973L36.951 35.5276L36.9734 35.5496C37.4726 36.0363 37.9301 36.292 38.3456 36.402C38.3958 38.5113 38.4963 42.0367 38.4963 42.0367L38.5018 42.111C38.5018 42.881 38.1811 43.321 36.6666 43.431C35.7573 43.4997 21.3428 43.8985 20.2523 43.8847C19.343 43.871 18.6345 43.8022 17.8452 42.9057C16.9025 41.8387 12.1413 33.5888 11.8513 32.8601C11.7815 32.3788 11.5026 27.5389 11.2767 23.4084C15.7533 23.1994 20.3081 22.9959 22.2047 22.8969ZM17.9735 29.8599C18.3473 30.9571 19.9594 36.347 19.9594 36.347C19.9594 36.347 20.163 37.293 20.6651 37.5983C21.1588 37.9283 22.1154 37.843 22.1154 37.843L24.9269 37.7303C26.4721 37.6808 30.218 37.5323 30.5471 37.5268C30.8902 37.5268 31.6042 37.37 31.752 37.0043C31.9501 36.5368 31.7576 35.9538 31.6237 35.4863C31.4424 34.8621 31.2388 34.2378 31.0547 33.6136C30.667 32.2991 30.2766 30.9956 29.8554 29.6894C29.6574 29.0404 29.6044 28.3914 29.0103 27.9129C28.3911 27.4014 27.6157 27.4701 26.8626 27.4811C26.1374 27.4949 25.4039 27.5031 24.6787 27.5251C23.1502 27.5746 21.6134 27.6434 20.0765 27.7094C19.6163 27.7369 19.1561 27.7534 18.6959 27.7781C17.4575 27.8414 17.5998 28.7571 17.9707 29.8599H17.9735ZM57.1893 46.0764V47.8199L77.1458 54.4419L77.2518 53.8506C77.9073 50.2949 78.903 44.6712 79.0648 43.9177H80.8861V66H78.7022C78.4595 64.5343 77.1821 59.1526 77.1681 59.0701L77.1124 58.7401C77.1124 58.7401 50.2415 48.0427 49.4661 47.7979V46.0737H57.1865L57.1893 46.0764Z" fill="url(#paint0_linear)"/>
<path d="M75.5978 52.4014C75.0121 52.2501 63.8359 48.6779 63.8359 48.6779C63.8359 48.6779 64.9097 45.411 65.0436 44.7922C65.2082 44.0662 65.4843 44.0497 65.6991 44.0222H65.7548L77.2741 43.9205C77.2741 43.9205 75.9827 50.2619 75.5978 52.4014ZM48.3197 48.5954C48.3197 48.5954 74.5435 59.0838 75.1962 59.2873C75.4556 60.9125 76.6968 66 76.6968 66H65.5401C65.5401 66 64.5918 66.0137 64.4077 65.2905C63.663 62.3343 63.1581 59.6558 63.1247 59.5541C63.0764 59.3608 62.9861 59.1803 62.8599 59.025C62.7337 58.8697 62.5746 58.7434 62.3939 58.6548C62.1373 58.5256 43.1263 49.2279 43.1263 49.2279V46.0737H48.3197V48.5954ZM69.7489 24.3874C69.7489 23.2544 69.7545 22.4844 69.7657 21.9702C71.6065 21.0902 77.4526 18.178 78.7301 17.5702L78.744 19.9765V19.9875C78.7524 20.015 78.7524 20.0535 78.7524 20.0892C78.7524 20.4825 78.6603 21.2992 78.1946 21.555C77.5586 21.9097 71.0933 25.2262 69.7322 25.9384C69.7489 25.7184 69.7489 25.4874 69.7489 25.2509V25.2124V24.3874ZM0.0223923 24.2224C0.0447057 24.1289 0.17859 24.0244 0.393356 23.9117C1.33052 23.8732 5.56448 23.6779 10.1248 23.4634C10.3117 26.8817 10.6436 32.7006 10.7272 33.0966C10.7747 33.3303 11.3185 34.3616 12.0605 35.6678C11.868 35.7943 11.6979 35.8961 11.5751 35.9703C11.1372 36.2096 10.3033 36.3278 9.92953 35.9208C9.68967 35.6458 8.32019 34.0838 6.73315 32.2606C4.47671 29.6646 1.92181 26.7332 1.31377 26.0649L0.856354 25.5782C0.22879 24.9072 7.62939e-05 24.6349 7.62939e-05 24.3572C-0.00039863 24.3113 0.00715241 24.2657 0.0223923 24.2224ZM50.6598 38.9953C51.8006 40.7168 53.3263 41.6737 54.9747 41.6737C55.7529 41.6737 56.5032 41.4537 57.1865 41.044V43.4695H43.1291V41.8195L50.261 38.3078C50.3893 38.547 50.512 38.7753 50.657 38.9953H50.6598ZM51.6416 38.404C51.5148 38.2108 51.3976 38.0116 51.2902 37.8073C54.2105 36.3718 57.1809 34.9116 59.7693 33.6466C59.5238 37.524 57.4654 40.5573 54.9747 40.5573C53.7335 40.5573 52.5565 39.801 51.6416 38.404ZM40.1307 36.0776L40.3538 35.9621C40.8168 35.7696 57.7583 27.7011 68.6026 22.5312L68.5998 24.3737V25.2537C68.5998 28.2511 67.579 28.6554 67.0295 28.8699C66.3015 29.1614 43.1514 40.5573 39.6454 42.2842C39.651 42.2017 39.651 42.1055 39.651 42.0092L39.4948 36.3608C39.7458 36.281 39.9661 36.1656 40.1307 36.0776ZM36.8813 33.4431C35.6095 31.8563 29.7215 25.2812 29.4119 24.9264C29.2278 24.6954 26.6172 21.566 22.1433 21.7832C18.9944 21.9372 8.49591 22.4322 3.22158 22.6687C3.94119 22.358 4.54922 22.1022 4.54922 22.1022L12.3171 18.7747L14.7158 17.7572L19.3653 15.7718C22.0764 14.6003 24.8879 13.3985 27.6547 12.2353L32.7031 10.0738C35.1241 9.02334 37.6177 7.9481 40.0944 6.93886C41.2101 6.49887 45.1652 4.74714 46.2362 4.27689C48.462 3.3089 50.763 2.30791 53.1534 1.58467C53.767 1.40042 56.5868 0.872428 57.2813 0.833929L63.9977 0.512182C67.108 0.368347 70.2179 0.216182 73.3274 0.0556871C76.3398 -0.123061 77.7818 0.0584372 78.2866 1.65067C78.5711 2.53891 80.0103 9.70258 80.5235 11.6138C80.6518 12.0813 80.7104 12.4636 80.7104 12.7743C80.7104 13.8578 80.041 14.1575 79.2544 14.5123L78.903 14.6745C78.6018 14.8203 39.743 33.2506 38.962 33.5998C38.9676 33.5998 38.9704 33.5916 38.9704 33.5916L38.9593 33.5998L38.6441 33.7538C38.1309 34.0288 37.7181 34.2433 36.8813 33.4403V33.4431ZM22.2047 22.8969C26.1263 22.7017 28.4915 25.5864 28.5138 25.6167L28.5277 25.6304C28.5975 25.7129 35.7294 34.0096 36.9343 35.4973L36.951 35.5276L36.9734 35.5496C37.4726 36.0363 37.9301 36.292 38.3456 36.402C38.3958 38.5113 38.4963 42.0367 38.4963 42.0367L38.5018 42.111C38.5018 42.881 38.1811 43.321 36.6666 43.431C35.7573 43.4997 21.3428 43.8985 20.2523 43.8847C19.343 43.871 18.6345 43.8022 17.8452 42.9057C16.9025 41.8387 12.1413 33.5888 11.8513 32.8601C11.7815 32.3788 11.5026 27.5389 11.2767 23.4084C15.7533 23.1994 20.3081 22.9959 22.2047 22.8969ZM17.9735 29.8599C18.3473 30.9571 19.9594 36.347 19.9594 36.347C19.9594 36.347 20.163 37.293 20.6651 37.5983C21.1588 37.9283 22.1154 37.843 22.1154 37.843L24.9269 37.7303C26.4721 37.6808 30.218 37.5323 30.5471 37.5268C30.8902 37.5268 31.6042 37.37 31.752 37.0043C31.9501 36.5368 31.7576 35.9538 31.6237 35.4863C31.4424 34.8621 31.2388 34.2378 31.0547 33.6136C30.667 32.2991 30.2766 30.9956 29.8554 29.6894C29.6574 29.0404 29.6044 28.3914 29.0103 27.9129C28.3911 27.4014 27.6157 27.4701 26.8626 27.4811C26.1374 27.4949 25.4039 27.5031 24.6787 27.5251C23.1502 27.5746 21.6134 27.6434 20.0765 27.7094C19.6163 27.7369 19.1561 27.7534 18.6959 27.7781C17.4575 27.8414 17.5998 28.7571 17.9707 29.8599H17.9735ZM57.1893 46.0764V47.8199L77.1458 54.4419L77.2518 53.8506C77.9073 50.2949 78.903 44.6712 79.0648 43.9177H80.8861V66H78.7022C78.4595 64.5343 77.1821 59.1526 77.1681 59.0701L77.1124 58.7401C77.1124 58.7401 50.2415 48.0427 49.4661 47.7979V46.0737H57.1865L57.1893 46.0764Z" fill="url(#paint1_linear)"/>
<path d="M75.5978 52.4014C75.0121 52.2501 63.8359 48.6779 63.8359 48.6779C63.8359 48.6779 64.9097 45.411 65.0436 44.7922C65.2082 44.0662 65.4843 44.0497 65.6991 44.0222H65.7548L77.2741 43.9205C77.2741 43.9205 75.9827 50.2619 75.5978 52.4014ZM48.3197 48.5954C48.3197 48.5954 74.5435 59.0838 75.1962 59.2873C75.4556 60.9125 76.6968 66 76.6968 66H65.5401C65.5401 66 64.5918 66.0137 64.4077 65.2905C63.663 62.3343 63.1581 59.6558 63.1247 59.5541C63.0764 59.3608 62.9861 59.1803 62.8599 59.025C62.7337 58.8697 62.5746 58.7434 62.3939 58.6548C62.1373 58.5256 43.1263 49.2279 43.1263 49.2279V46.0737H48.3197V48.5954ZM69.7489 24.3874C69.7489 23.2544 69.7545 22.4844 69.7657 21.9702C71.6065 21.0902 77.4526 18.178 78.7301 17.5702L78.744 19.9765V19.9875C78.7524 20.015 78.7524 20.0535 78.7524 20.0892C78.7524 20.4825 78.6603 21.2992 78.1946 21.555C77.5586 21.9097 71.0933 25.2262 69.7322 25.9384C69.7489 25.7184 69.7489 25.4874 69.7489 25.2509V25.2124V24.3874ZM0.0223923 24.2224C0.0447057 24.1289 0.17859 24.0244 0.393356 23.9117C1.33052 23.8732 5.56448 23.6779 10.1248 23.4634C10.3117 26.8817 10.6436 32.7006 10.7272 33.0966C10.7747 33.3303 11.3185 34.3616 12.0605 35.6678C11.868 35.7943 11.6979 35.8961 11.5751 35.9703C11.1372 36.2096 10.3033 36.3278 9.92953 35.9208C9.68967 35.6458 8.32019 34.0838 6.73315 32.2606C4.47671 29.6646 1.92181 26.7332 1.31377 26.0649L0.856354 25.5782C0.22879 24.9072 7.62939e-05 24.6349 7.62939e-05 24.3572C-0.00039863 24.3113 0.00715241 24.2657 0.0223923 24.2224ZM50.6598 38.9953C51.8006 40.7168 53.3263 41.6737 54.9747 41.6737C55.7529 41.6737 56.5032 41.4537 57.1865 41.044V43.4695H43.1291V41.8195L50.261 38.3078C50.3893 38.547 50.512 38.7753 50.657 38.9953H50.6598ZM51.6416 38.404C51.5148 38.2108 51.3976 38.0116 51.2902 37.8073C54.2105 36.3718 57.1809 34.9116 59.7693 33.6466C59.5238 37.524 57.4654 40.5573 54.9747 40.5573C53.7335 40.5573 52.5565 39.801 51.6416 38.404ZM40.1307 36.0776L40.3538 35.9621C40.8168 35.7696 57.7583 27.7011 68.6026 22.5312L68.5998 24.3737V25.2537C68.5998 28.2511 67.579 28.6554 67.0295 28.8699C66.3015 29.1614 43.1514 40.5573 39.6454 42.2842C39.651 42.2017 39.651 42.1055 39.651 42.0092L39.4948 36.3608C39.7458 36.281 39.9661 36.1656 40.1307 36.0776ZM36.8813 33.4431C35.6095 31.8563 29.7215 25.2812 29.4119 24.9264C29.2278 24.6954 26.6172 21.566 22.1433 21.7832C18.9944 21.9372 8.49591 22.4322 3.22158 22.6687C3.94119 22.358 4.54922 22.1022 4.54922 22.1022L12.3171 18.7747L14.7158 17.7572L19.3653 15.7718C22.0764 14.6003 24.8879 13.3985 27.6547 12.2353L32.7031 10.0738C35.1241 9.02334 37.6177 7.9481 40.0944 6.93886C41.2101 6.49887 45.1652 4.74714 46.2362 4.27689C48.462 3.3089 50.763 2.30791 53.1534 1.58467C53.767 1.40042 56.5868 0.872428 57.2813 0.833929L63.9977 0.512182C67.108 0.368347 70.2179 0.216182 73.3274 0.0556871C76.3398 -0.123061 77.7818 0.0584372 78.2866 1.65067C78.5711 2.53891 80.0103 9.70258 80.5235 11.6138C80.6518 12.0813 80.7104 12.4636 80.7104 12.7743C80.7104 13.8578 80.041 14.1575 79.2544 14.5123L78.903 14.6745C78.6018 14.8203 39.743 33.2506 38.962 33.5998C38.9676 33.5998 38.9704 33.5916 38.9704 33.5916L38.9593 33.5998L38.6441 33.7538C38.1309 34.0288 37.7181 34.2433 36.8813 33.4403V33.4431ZM22.2047 22.8969C26.1263 22.7017 28.4915 25.5864 28.5138 25.6167L28.5277 25.6304C28.5975 25.7129 35.7294 34.0096 36.9343 35.4973L36.951 35.5276L36.9734 35.5496C37.4726 36.0363 37.9301 36.292 38.3456 36.402C38.3958 38.5113 38.4963 42.0367 38.4963 42.0367L38.5018 42.111C38.5018 42.881 38.1811 43.321 36.6666 43.431C35.7573 43.4997 21.3428 43.8985 20.2523 43.8847C19.343 43.871 18.6345 43.8022 17.8452 42.9057C16.9025 41.8387 12.1413 33.5888 11.8513 32.8601C11.7815 32.3788 11.5026 27.5389 11.2767 23.4084C15.7533 23.1994 20.3081 22.9959 22.2047 22.8969ZM17.9735 29.8599C18.3473 30.9571 19.9594 36.347 19.9594 36.347C19.9594 36.347 20.163 37.293 20.6651 37.5983C21.1588 37.9283 22.1154 37.843 22.1154 37.843L24.9269 37.7303C26.4721 37.6808 30.218 37.5323 30.5471 37.5268C30.8902 37.5268 31.6042 37.37 31.752 37.0043C31.9501 36.5368 31.7576 35.9538 31.6237 35.4863C31.4424 34.8621 31.2388 34.2378 31.0547 33.6136C30.667 32.2991 30.2766 30.9956 29.8554 29.6894C29.6574 29.0404 29.6044 28.3914 29.0103 27.9129C28.3911 27.4014 27.6157 27.4701 26.8626 27.4811C26.1374 27.4949 25.4039 27.5031 24.6787 27.5251C23.1502 27.5746 21.6134 27.6434 20.0765 27.7094C19.6163 27.7369 19.1561 27.7534 18.6959 27.7781C17.4575 27.8414 17.5998 28.7571 17.9707 29.8599H17.9735ZM57.1893 46.0764V47.8199L77.1458 54.4419L77.2518 53.8506C77.9073 50.2949 78.903 44.6712 79.0648 43.9177H80.8861V66H78.7022C78.4595 64.5343 77.1821 59.1526 77.1681 59.0701L77.1124 58.7401C77.1124 58.7401 50.2415 48.0427 49.4661 47.7979V46.0737H57.1865L57.1893 46.0764Z" stroke="#BFBFBF" stroke-width="3" stroke-dasharray="2 2" mask="url(#path-2-inside-1)"/>
<defs>
<linearGradient id="paint0_linear" x1="75.2429" y1="63.6977" x2="22.7155" y2="-6.11723" gradientUnits="userSpaceOnUse">
<stop stop-color="#777777"/>
<stop offset="0.53368" stop-color="#F9F9F9"/>
<stop offset="1" stop-color="white"/>
</linearGradient>
<linearGradient id="paint1_linear" x1="43.8794" y1="4.58333" x2="49.3412" y2="19.2831" gradientUnits="userSpaceOnUse">
<stop stop-color="#BEBEBE"/>
<stop offset="1" stop-color="white" stop-opacity="0"/>
</linearGradient>
</defs>
</svg>
