<svg width="81" height="64" viewBox="0 0 81 64" fill="none" xmlns="http://www.w3.org/2000/svg">
<path d="M32.178 55.406L30.376 48.8593C30.155 48.0563 29.4248 47.5 28.592 47.5H19.4247C18.2193 47.5 17.3357 48.6342 17.6306 49.803L19.4459 56.9976C19.6653 57.8669 20.4763 58.4539 21.3706 58.3906L30.5247 57.7428C31.6898 57.6603 32.488 56.5322 32.178 55.406Z" fill="#595959"/>
<path d="M0.523376 44.4121C0.526489 44.4102 0.529686 44.4082 0.532944 44.4063C1.62743 44.3599 5.45489 44.1834 9.65265 43.9862C9.74313 45.6298 9.85963 47.6917 9.96556 49.4435C10.024 50.4098 10.0793 51.2829 10.1252 51.9399C10.1482 52.2682 10.169 52.5443 10.1868 52.7518C10.2029 52.9405 10.2194 53.1105 10.2376 53.198M0.523376 44.4121L10.7272 53.0966M0.523376 44.4121C0.537941 44.4391 0.560959 44.4763 0.597313 44.5263C0.711266 44.6831 0.902466 44.8955 1.22125 45.2364C1.22132 45.2365 1.2214 45.2366 1.22147 45.2366L1.67807 45.7225L1.67812 45.7225L1.68353 45.7284C2.29654 46.4021 4.85688 49.3399 7.11046 51.9326C8.32679 53.3299 9.41366 54.5719 9.964 55.2008C10.1263 55.3863 10.242 55.5184 10.3005 55.5855C10.3472 55.6335 10.472 55.6948 10.7144 55.6881C10.9451 55.6817 11.1804 55.6139 11.3269 55.5361M0.523376 44.4121L11.3269 55.5361M10.2376 53.198C10.2377 53.1986 10.2378 53.1993 10.238 53.2L10.7272 53.0966M10.2376 53.198C10.2374 53.1973 10.2373 53.1967 10.2372 53.196L10.7272 53.0966M10.2376 53.198C10.2633 53.3227 10.3324 53.4824 10.3972 53.6229C10.4712 53.7831 10.5709 53.9826 10.6899 54.2111C10.8767 54.5695 11.1163 55.0091 11.3903 55.4978M10.7272 53.0966C10.7746 53.3303 11.3185 54.3616 12.0604 55.6678M11.3903 55.4978C11.5024 55.4299 11.637 55.3478 11.7858 55.25L12.0604 55.6678M11.3903 55.4978C11.377 55.5058 11.3641 55.5136 11.3514 55.5213L11.3269 55.5361M11.3903 55.4978C11.4662 55.6332 11.5448 55.7724 11.6256 55.9147L12.0604 55.6678M12.0604 55.6678L11.3269 55.5361M78.1672 40.7367C78.232 40.5092 78.2523 40.2558 78.2523 40.0894L78.244 40.0619V39.9875V39.9779V39.9765L78.2346 38.3657C77.4445 38.7517 76.2517 39.3407 74.9943 39.9615L74.6804 40.1165C73.0004 40.9459 71.2579 41.8056 70.26 42.2874C70.2526 42.7826 70.2489 43.4627 70.2489 44.3874V45.1066C70.897 44.7712 71.7948 44.3084 72.7502 43.8158C74.9983 42.6568 77.5657 41.3332 77.9509 41.1183L77.9539 41.1167C78.0071 41.0874 78.0968 40.984 78.1672 40.7367ZM40.1366 61.4849C42.579 60.2823 48.5078 57.3643 54.1588 54.5899C57.3173 53.0392 60.3892 51.5333 62.7172 50.3967C65.0274 49.2688 66.639 48.4876 66.8436 48.4057L66.8476 48.4041C67.0986 48.3061 67.3652 48.1994 67.6004 47.8345C67.8506 47.4463 68.0997 46.7061 68.0997 45.2537L68.0997 44.3737L68.0997 44.3729L68.1013 43.324C57.3857 48.4323 41.4004 56.045 40.5692 56.4136L40.3664 56.5185C40.3654 56.519 40.3644 56.5196 40.3634 56.5201C40.2694 56.5704 40.1469 56.6353 40.0043 56.6993L40.1366 61.4849ZM38.4967 53.4313C38.4967 53.4314 38.4967 53.4315 38.8444 53.549L38.8131 53.4024L38.6635 53.2001C38.6066 53.2433 38.5719 53.2892 38.554 53.3157C38.5342 53.3451 38.5214 53.3709 38.5139 53.3875C38.5125 53.3907 38.5112 53.3937 38.5099 53.3967C38.5076 53.4021 38.5056 53.4072 38.5038 53.4118L38.4999 53.4222L38.4982 53.427L38.4974 53.4293L38.497 53.4304L38.4968 53.431L38.4967 53.4313ZM38.7405 53.1523L38.7747 53.2222L38.758 53.1439C38.752 53.1466 38.7462 53.1494 38.7405 53.1523ZM39.8176 52.6459C46.1495 49.6585 78.4101 34.3575 78.6852 34.2244L78.6851 34.2244L78.6934 34.2206L79.0448 34.0583L79.0448 34.0583L79.0488 34.0565C79.4631 33.8697 79.7398 33.7392 79.9313 33.5557C80.0885 33.4049 80.2103 33.1944 80.2103 32.7743C80.2103 32.5229 80.1624 32.1874 80.0413 31.7461L80.0413 31.7461L80.0406 31.7435C79.7797 30.772 79.2881 28.486 78.8304 26.3536L78.7985 26.2053C78.58 25.1871 78.3698 24.2078 78.1957 23.4215C78.0102 22.5833 77.8726 21.9976 77.8104 21.8032L77.8099 21.8018C77.7043 21.4687 77.5595 21.2378 77.3798 21.0689C77.199 20.8989 76.9555 20.7658 76.6136 20.6709C75.9047 20.4741 74.8712 20.465 73.357 20.5548L73.3532 20.555C70.2429 20.7156 67.1322 20.8678 64.0212 21.0116C64.021 21.0116 64.0209 21.0116 64.0207 21.0116L57.3089 21.3332C57.3084 21.3332 57.3078 21.3332 57.3072 21.3333C56.9967 21.3508 56.1535 21.4852 55.2775 21.6464C54.4026 21.8074 53.5732 21.9807 53.2974 22.0635C50.9402 22.7767 48.6662 23.7653 46.4366 24.735C46.2766 24.8052 46.0509 24.9047 45.7788 25.0245C44.2452 25.7002 41.2411 27.0238 40.2806 27.4029C37.8103 28.4095 35.3222 29.4824 32.9021 30.5325L32.8999 30.5335L27.8515 32.695L27.8484 32.6962C25.0834 33.8587 22.2735 35.0598 19.5636 36.2308L19.5616 36.2316L14.9121 38.2171L14.9109 38.2176L12.5139 39.2343L12.5123 39.235L5.95473 42.0441C11.5255 41.7887 19.4543 41.4141 22.1188 41.2838L22.119 41.2838C26.7926 41.0568 29.5331 44.2803 29.7951 44.6051C29.8558 44.6743 30.0676 44.912 30.3844 45.2677C31.9597 47.0358 36.1318 51.7186 37.2407 53.0923C37.614 53.4472 37.8126 53.4976 37.9067 53.5018C38.0189 53.507 38.1296 53.4622 38.4079 53.3131L38.4161 53.3087L38.4245 53.3046L38.6986 53.1707L39.954 52.242L39.8176 52.6459ZM11.8035 43.8844C11.9091 45.805 12.0236 47.8318 12.1216 49.4729C12.2217 51.1494 12.3028 52.3881 12.3386 52.7267C12.3793 52.8133 12.4632 52.9774 12.5938 53.2206C12.7515 53.514 12.9632 53.8972 13.2134 54.3421C13.7135 55.2314 14.3636 56.3615 15.0345 57.5027C15.7055 58.6441 16.3956 59.794 16.9758 60.7237C17.5674 61.6716 18.0178 62.346 18.2198 62.5747L18.2204 62.5753C18.566 62.9678 18.869 63.1535 19.1631 63.2523C19.4716 63.3561 19.8062 63.3779 20.2585 63.3848C21.337 63.3984 35.7366 62.9999 36.6288 62.9324L36.6303 62.9323C37.3683 62.8787 37.6926 62.7481 37.8359 62.6311C37.9353 62.55 37.9993 62.4333 38.0017 62.1288L37.9976 62.0742L37.9967 62.0626L37.9964 62.051L37.9964 62.0508L37.9964 62.0503L37.9963 62.0484L37.9961 62.0408L37.9952 62.0108L37.992 61.8953L37.9799 61.4669C37.9697 61.1034 37.9556 60.5967 37.9399 60.024C37.9118 59.0004 37.8788 57.7656 37.8541 56.7611C37.4526 56.5926 37.043 56.3158 36.6243 55.9076L36.6223 55.9056L36.6 55.8836L36.5485 55.8328L36.5182 55.7781C35.3902 54.3919 29.7962 47.8758 28.4411 46.2973C28.295 46.1271 28.1981 46.0143 28.1615 45.9715L28.1347 45.9451L28.1114 45.9135C28.1133 45.9161 28.111 45.9134 28.1044 45.9059C28.035 45.826 27.4919 45.2007 26.5501 44.5922C25.5269 43.9312 24.0579 43.3054 22.2301 43.3963C20.9737 43.4619 18.5531 43.5732 15.763 43.7016C14.4947 43.7599 13.1499 43.8218 11.8035 43.8844ZM31.0547 53.6136L31.5343 53.4722C31.613 53.7391 31.7034 54.0317 31.795 54.3281C31.9018 54.6739 32.0103 55.0249 32.1038 55.3469L32.1043 55.3487C32.1124 55.3767 32.121 55.4063 32.1299 55.437C32.19 55.6437 32.2664 55.9065 32.3066 56.1698C32.353 56.4741 32.3628 56.8417 32.2137 57.196C32.1289 57.4029 31.9786 57.5488 31.8391 57.6479C31.6969 57.7489 31.5377 57.8216 31.3896 57.874C31.0994 57.9768 30.7812 58.0261 30.5519 58.0268C30.3895 58.0298 29.4928 58.0635 28.4252 58.1037C27.2097 58.1494 25.7727 58.2034 24.9449 58.23C24.9442 58.23 24.9436 58.23 24.9429 58.23L22.1455 58.3422L22.1425 58.3425C22.1332 58.3432 22.1203 58.3441 22.1043 58.3451C22.0723 58.3471 22.0275 58.3494 21.9727 58.351C21.8638 58.3542 21.7123 58.3546 21.5423 58.3433C21.2295 58.3226 20.7578 58.2576 20.396 58.0198C20.0051 57.7774 19.7808 57.3366 19.6619 57.0494C19.5962 56.8905 19.5492 56.7443 19.5186 56.6381C19.5031 56.5846 19.4916 56.5403 19.4837 56.5084C19.4803 56.4947 19.4776 56.4832 19.4755 56.4742L19.4621 56.4297L19.4104 56.2568L19.2228 55.6316C19.0658 55.1094 18.8528 54.4017 18.628 53.6599C18.2496 52.4106 17.8414 51.0755 17.6115 50.3599H17.6113L17.4968 50.0193C17.4014 49.736 17.3146 49.447 17.2622 49.172C17.2105 48.9009 17.1852 48.6099 17.2389 48.3337C17.2955 48.0428 17.441 47.7677 17.7151 47.5697C17.9758 47.3814 18.3048 47.2976 18.669 47.2789C18.8761 47.2677 19.0751 47.2586 19.2719 47.2495C19.5295 47.2377 19.7833 47.226 20.0467 47.2103L20.0467 47.2102L20.055 47.2099C20.2501 47.2015 20.4453 47.193 20.6406 47.1846C21.9818 47.1267 23.3253 47.0687 24.6624 47.0254L24.6635 47.0254C25.1828 47.0096 25.7082 47.0008 26.2277 46.9922C26.4374 46.9886 26.6461 46.9852 26.8531 46.9812L26.8552 46.9812C26.921 46.9802 26.9899 46.9784 27.0614 46.9766C27.7242 46.9592 28.6106 46.936 29.3262 47.5254C29.7113 47.8364 29.9168 48.2033 30.0502 48.5636C30.1152 48.7392 30.164 48.9158 30.2067 49.0778C30.2162 49.1138 30.2254 49.1488 30.2343 49.1831C30.2669 49.3079 30.2969 49.423 30.3325 49.5399C30.7551 50.8509 31.1467 52.158 31.5342 53.4721L31.0547 53.6136Z" fill="url(#paint0_linear)"/>
<path d="M0.523376 44.4121C0.526489 44.4102 0.529686 44.4082 0.532944 44.4063C1.62743 44.3599 5.45489 44.1834 9.65265 43.9862C9.74313 45.6298 9.85963 47.6917 9.96556 49.4435C10.024 50.4098 10.0793 51.2829 10.1252 51.9399C10.1482 52.2682 10.169 52.5443 10.1868 52.7518C10.2029 52.9405 10.2194 53.1105 10.2376 53.198M0.523376 44.4121L10.7272 53.0966M0.523376 44.4121C0.537941 44.4391 0.560959 44.4763 0.597313 44.5263C0.711266 44.6831 0.902466 44.8955 1.22125 45.2364C1.22132 45.2365 1.2214 45.2366 1.22147 45.2366L1.67807 45.7225L1.67812 45.7225L1.68353 45.7284C2.29654 46.4021 4.85688 49.3399 7.11046 51.9326C8.32679 53.3299 9.41366 54.5719 9.964 55.2008C10.1263 55.3863 10.242 55.5184 10.3005 55.5855C10.3472 55.6335 10.472 55.6948 10.7144 55.6881C10.9451 55.6817 11.1804 55.6139 11.3269 55.5361M0.523376 44.4121L11.3269 55.5361M10.2376 53.198C10.2377 53.1986 10.2378 53.1993 10.238 53.2L10.7272 53.0966M10.2376 53.198C10.2374 53.1973 10.2373 53.1967 10.2372 53.196L10.7272 53.0966M10.2376 53.198C10.2633 53.3227 10.3324 53.4824 10.3972 53.6229C10.4712 53.7831 10.5709 53.9826 10.6899 54.2111C10.8767 54.5695 11.1163 55.0091 11.3903 55.4978M10.7272 53.0966C10.7746 53.3303 11.3185 54.3616 12.0604 55.6678M11.3903 55.4978C11.5024 55.4299 11.637 55.3478 11.7858 55.25L12.0604 55.6678M11.3903 55.4978C11.377 55.5058 11.3641 55.5136 11.3514 55.5213L11.3269 55.5361M11.3903 55.4978C11.4662 55.6332 11.5448 55.7724 11.6256 55.9147L12.0604 55.6678M12.0604 55.6678L11.3269 55.5361M78.1672 40.7367C78.232 40.5092 78.2523 40.2558 78.2523 40.0894L78.244 40.0619V39.9875V39.9779V39.9765L78.2346 38.3657C77.4445 38.7517 76.2517 39.3407 74.9943 39.9615L74.6804 40.1165C73.0004 40.9459 71.2579 41.8056 70.26 42.2874C70.2526 42.7826 70.2489 43.4627 70.2489 44.3874V45.1066C70.897 44.7712 71.7948 44.3084 72.7502 43.8158C74.9983 42.6568 77.5657 41.3332 77.9509 41.1183L77.9539 41.1167C78.0071 41.0874 78.0968 40.984 78.1672 40.7367ZM40.1366 61.4849C42.579 60.2823 48.5078 57.3643 54.1588 54.5899C57.3173 53.0392 60.3892 51.5333 62.7172 50.3967C65.0274 49.2688 66.639 48.4876 66.8436 48.4057L66.8476 48.4041C67.0986 48.3061 67.3652 48.1994 67.6004 47.8345C67.8506 47.4463 68.0997 46.7061 68.0997 45.2537L68.0997 44.3737L68.0997 44.3729L68.1013 43.324C57.3857 48.4323 41.4004 56.045 40.5692 56.4136L40.3664 56.5185C40.3654 56.519 40.3644 56.5196 40.3634 56.5201C40.2694 56.5704 40.1469 56.6353 40.0043 56.6993L40.1366 61.4849ZM38.4967 53.4313C38.4967 53.4314 38.4967 53.4315 38.8444 53.549L38.8131 53.4024L38.6635 53.2001C38.6066 53.2433 38.5719 53.2892 38.554 53.3157C38.5342 53.3451 38.5214 53.3709 38.5139 53.3875C38.5125 53.3907 38.5112 53.3937 38.5099 53.3967C38.5076 53.4021 38.5056 53.4072 38.5038 53.4118L38.4999 53.4222L38.4982 53.427L38.4974 53.4293L38.497 53.4304L38.4968 53.431L38.4967 53.4313ZM38.7405 53.1523L38.7747 53.2222L38.758 53.1439C38.752 53.1466 38.7462 53.1494 38.7405 53.1523ZM39.8176 52.6459C46.1495 49.6585 78.4101 34.3575 78.6852 34.2244L78.6851 34.2244L78.6934 34.2206L79.0448 34.0583L79.0448 34.0583L79.0488 34.0565C79.4631 33.8697 79.7398 33.7392 79.9313 33.5557C80.0885 33.4049 80.2103 33.1944 80.2103 32.7743C80.2103 32.5229 80.1624 32.1874 80.0413 31.7461L80.0413 31.7461L80.0406 31.7435C79.7797 30.772 79.2881 28.486 78.8304 26.3536L78.7985 26.2053C78.58 25.1871 78.3698 24.2078 78.1957 23.4215C78.0102 22.5833 77.8726 21.9976 77.8104 21.8032L77.8099 21.8018C77.7043 21.4687 77.5595 21.2378 77.3798 21.0689C77.199 20.8989 76.9555 20.7658 76.6136 20.6709C75.9047 20.4741 74.8712 20.465 73.357 20.5548L73.3532 20.555C70.2429 20.7156 67.1322 20.8678 64.0212 21.0116C64.021 21.0116 64.0209 21.0116 64.0207 21.0116L57.3089 21.3332C57.3084 21.3332 57.3078 21.3332 57.3072 21.3333C56.9967 21.3508 56.1535 21.4852 55.2775 21.6464C54.4026 21.8074 53.5732 21.9807 53.2974 22.0635C50.9402 22.7767 48.6662 23.7653 46.4366 24.735C46.2766 24.8052 46.0509 24.9047 45.7788 25.0245C44.2452 25.7002 41.2411 27.0238 40.2806 27.4029C37.8103 28.4095 35.3222 29.4824 32.9021 30.5325L32.8999 30.5335L27.8515 32.695L27.8484 32.6962C25.0834 33.8587 22.2735 35.0598 19.5636 36.2308L19.5616 36.2316L14.9121 38.2171L14.9109 38.2176L12.5139 39.2343L12.5123 39.235L5.95473 42.0441C11.5255 41.7887 19.4543 41.4141 22.1188 41.2838L22.119 41.2838C26.7926 41.0568 29.5331 44.2803 29.7951 44.6051C29.8558 44.6743 30.0676 44.912 30.3844 45.2677C31.9597 47.0358 36.1318 51.7186 37.2407 53.0923C37.614 53.4472 37.8126 53.4976 37.9067 53.5018C38.0189 53.507 38.1296 53.4622 38.4079 53.3131L38.4161 53.3087L38.4245 53.3046L38.6986 53.1707L39.954 52.242L39.8176 52.6459ZM11.8035 43.8844C11.9091 45.805 12.0236 47.8318 12.1216 49.4729C12.2217 51.1494 12.3028 52.3881 12.3386 52.7267C12.3793 52.8133 12.4632 52.9774 12.5938 53.2206C12.7515 53.514 12.9632 53.8972 13.2134 54.3421C13.7135 55.2314 14.3636 56.3615 15.0345 57.5027C15.7055 58.6441 16.3956 59.794 16.9758 60.7237C17.5674 61.6716 18.0178 62.346 18.2198 62.5747L18.2204 62.5753C18.566 62.9678 18.869 63.1535 19.1631 63.2523C19.4716 63.3561 19.8062 63.3779 20.2585 63.3848C21.337 63.3984 35.7366 62.9999 36.6288 62.9324L36.6303 62.9323C37.3683 62.8787 37.6926 62.7481 37.8359 62.6311C37.9353 62.55 37.9993 62.4333 38.0017 62.1288L37.9976 62.0742L37.9967 62.0626L37.9964 62.051L37.9964 62.0508L37.9964 62.0503L37.9963 62.0484L37.9961 62.0408L37.9952 62.0108L37.992 61.8953L37.9799 61.4669C37.9697 61.1034 37.9556 60.5967 37.9399 60.024C37.9118 59.0004 37.8788 57.7656 37.8541 56.7611C37.4526 56.5926 37.043 56.3158 36.6243 55.9076L36.6223 55.9056L36.6 55.8836L36.5485 55.8328L36.5182 55.7781C35.3902 54.3919 29.7962 47.8758 28.4411 46.2973C28.295 46.1271 28.1981 46.0143 28.1615 45.9715L28.1347 45.9451L28.1114 45.9135C28.1133 45.9161 28.111 45.9134 28.1044 45.9059C28.035 45.826 27.4919 45.2007 26.5501 44.5922C25.5269 43.9312 24.0579 43.3054 22.2301 43.3963C20.9737 43.4619 18.5531 43.5732 15.763 43.7016C14.4947 43.7599 13.1499 43.8218 11.8035 43.8844ZM31.0547 53.6136L31.5343 53.4722C31.613 53.7391 31.7034 54.0317 31.795 54.3281C31.9018 54.6739 32.0103 55.0249 32.1038 55.3469L32.1043 55.3487C32.1124 55.3767 32.121 55.4063 32.1299 55.437C32.19 55.6437 32.2664 55.9065 32.3066 56.1698C32.353 56.4741 32.3628 56.8417 32.2137 57.196C32.1289 57.4029 31.9786 57.5488 31.8391 57.6479C31.6969 57.7489 31.5377 57.8216 31.3896 57.874C31.0994 57.9768 30.7812 58.0261 30.5519 58.0268C30.3895 58.0298 29.4928 58.0635 28.4252 58.1037C27.2097 58.1494 25.7727 58.2034 24.9449 58.23C24.9442 58.23 24.9436 58.23 24.9429 58.23L22.1455 58.3422L22.1425 58.3425C22.1332 58.3432 22.1203 58.3441 22.1043 58.3451C22.0723 58.3471 22.0275 58.3494 21.9727 58.351C21.8638 58.3542 21.7123 58.3546 21.5423 58.3433C21.2295 58.3226 20.7578 58.2576 20.396 58.0198C20.0051 57.7774 19.7808 57.3366 19.6619 57.0494C19.5962 56.8905 19.5492 56.7443 19.5186 56.6381C19.5031 56.5846 19.4916 56.5403 19.4837 56.5084C19.4803 56.4947 19.4776 56.4832 19.4755 56.4742L19.4621 56.4297L19.4104 56.2568L19.2228 55.6316C19.0658 55.1094 18.8528 54.4017 18.628 53.6599C18.2496 52.4106 17.8414 51.0755 17.6115 50.3599H17.6113L17.4968 50.0193C17.4014 49.736 17.3146 49.447 17.2622 49.172C17.2105 48.9009 17.1852 48.6099 17.2389 48.3337C17.2955 48.0428 17.441 47.7677 17.7151 47.5697C17.9758 47.3814 18.3048 47.2976 18.669 47.2789C18.8761 47.2677 19.0751 47.2586 19.2719 47.2495C19.5295 47.2377 19.7833 47.226 20.0467 47.2103L20.0467 47.2102L20.055 47.2099C20.2501 47.2015 20.4453 47.193 20.6406 47.1846C21.9818 47.1267 23.3253 47.0687 24.6624 47.0254L24.6635 47.0254C25.1828 47.0096 25.7082 47.0008 26.2277 46.9922C26.4374 46.9886 26.6461 46.9852 26.8531 46.9812L26.8552 46.9812C26.921 46.9802 26.9899 46.9784 27.0614 46.9766C27.7242 46.9592 28.6106 46.936 29.3262 47.5254C29.7113 47.8364 29.9168 48.2033 30.0502 48.5636C30.1152 48.7392 30.164 48.9158 30.2067 49.0778C30.2162 49.1138 30.2254 49.1488 30.2343 49.1831C30.2669 49.3079 30.2969 49.423 30.3325 49.5399C30.7551 50.8509 31.1467 52.158 31.5342 53.4721L31.0547 53.6136Z" fill="url(#paint1_linear)"/>
<path d="M0.523376 44.4121C0.526489 44.4102 0.529686 44.4082 0.532944 44.4063C1.62743 44.3599 5.45489 44.1834 9.65265 43.9862C9.74313 45.6298 9.85963 47.6917 9.96556 49.4435C10.024 50.4098 10.0793 51.2829 10.1252 51.9399C10.1482 52.2682 10.169 52.5443 10.1868 52.7518C10.2029 52.9405 10.2194 53.1105 10.2376 53.198M0.523376 44.4121L10.7272 53.0966M0.523376 44.4121C0.537941 44.4391 0.560959 44.4763 0.597313 44.5263C0.711266 44.6831 0.902466 44.8955 1.22125 45.2364C1.22132 45.2365 1.2214 45.2366 1.22147 45.2366L1.67807 45.7225L1.67812 45.7225L1.68353 45.7284C2.29654 46.4021 4.85688 49.3399 7.11046 51.9326C8.32679 53.3299 9.41366 54.5719 9.964 55.2008C10.1263 55.3863 10.242 55.5184 10.3005 55.5855C10.3472 55.6335 10.472 55.6948 10.7144 55.6881C10.9451 55.6817 11.1804 55.6139 11.3269 55.5361M0.523376 44.4121L11.3269 55.5361M10.2376 53.198C10.2377 53.1986 10.2378 53.1993 10.238 53.2L10.7272 53.0966M10.2376 53.198C10.2374 53.1973 10.2373 53.1967 10.2372 53.196L10.7272 53.0966M10.2376 53.198C10.2633 53.3227 10.3324 53.4824 10.3972 53.6229C10.4712 53.7831 10.5709 53.9826 10.6899 54.2111C10.8767 54.5695 11.1163 55.0091 11.3903 55.4978M10.7272 53.0966C10.7746 53.3303 11.3185 54.3616 12.0604 55.6678M11.3903 55.4978C11.5024 55.4299 11.637 55.3478 11.7858 55.25L12.0604 55.6678M11.3903 55.4978C11.377 55.5058 11.3641 55.5136 11.3514 55.5213L11.3269 55.5361M11.3903 55.4978C11.4662 55.6332 11.5448 55.7724 11.6256 55.9147L12.0604 55.6678M12.0604 55.6678L11.3269 55.5361M78.1672 40.7367C78.232 40.5092 78.2523 40.2558 78.2523 40.0894L78.244 40.0619V39.9875V39.9779V39.9765L78.2346 38.3657C77.4445 38.7517 76.2517 39.3407 74.9943 39.9615L74.6804 40.1165C73.0004 40.9459 71.2579 41.8056 70.26 42.2874C70.2526 42.7826 70.2489 43.4627 70.2489 44.3874V45.1066C70.897 44.7712 71.7948 44.3084 72.7502 43.8158C74.9983 42.6568 77.5657 41.3332 77.9509 41.1183L77.9539 41.1167C78.0071 41.0874 78.0968 40.984 78.1672 40.7367ZM40.1366 61.4849C42.579 60.2823 48.5078 57.3643 54.1588 54.5899C57.3173 53.0392 60.3892 51.5333 62.7172 50.3967C65.0274 49.2688 66.639 48.4876 66.8436 48.4057L66.8476 48.4041C67.0986 48.3061 67.3652 48.1994 67.6004 47.8345C67.8506 47.4463 68.0997 46.7061 68.0997 45.2537L68.0997 44.3737L68.0997 44.3729L68.1013 43.324C57.3857 48.4323 41.4004 56.045 40.5692 56.4136L40.3664 56.5185C40.3654 56.519 40.3644 56.5196 40.3634 56.5201C40.2694 56.5704 40.1469 56.6353 40.0043 56.6993L40.1366 61.4849ZM38.4967 53.4313C38.4967 53.4314 38.4967 53.4315 38.8444 53.549L38.8131 53.4024L38.6635 53.2001C38.6066 53.2433 38.5719 53.2892 38.554 53.3157C38.5342 53.3451 38.5214 53.3709 38.5139 53.3875C38.5125 53.3907 38.5112 53.3937 38.5099 53.3967C38.5076 53.4021 38.5056 53.4072 38.5038 53.4118L38.4999 53.4222L38.4982 53.427L38.4974 53.4293L38.497 53.4304L38.4968 53.431L38.4967 53.4313ZM38.7405 53.1523L38.7747 53.2222L38.758 53.1439C38.752 53.1466 38.7462 53.1494 38.7405 53.1523ZM39.8176 52.6459C46.1495 49.6585 78.4101 34.3575 78.6852 34.2244L78.6851 34.2244L78.6934 34.2206L79.0448 34.0583L79.0448 34.0583L79.0488 34.0565C79.4631 33.8697 79.7398 33.7392 79.9313 33.5557C80.0885 33.4049 80.2103 33.1944 80.2103 32.7743C80.2103 32.5229 80.1624 32.1874 80.0413 31.7461L80.0413 31.7461L80.0406 31.7435C79.7797 30.772 79.2881 28.486 78.8304 26.3536L78.7985 26.2053C78.58 25.1871 78.3698 24.2078 78.1957 23.4215C78.0102 22.5833 77.8726 21.9976 77.8104 21.8032L77.8099 21.8018C77.7043 21.4687 77.5595 21.2378 77.3798 21.0689C77.199 20.8989 76.9555 20.7658 76.6136 20.6709C75.9047 20.4741 74.8712 20.465 73.357 20.5548L73.3532 20.555C70.2429 20.7156 67.1322 20.8678 64.0212 21.0116C64.021 21.0116 64.0209 21.0116 64.0207 21.0116L57.3089 21.3332C57.3084 21.3332 57.3078 21.3332 57.3072 21.3333C56.9967 21.3508 56.1535 21.4852 55.2775 21.6464C54.4026 21.8074 53.5732 21.9807 53.2974 22.0635C50.9402 22.7767 48.6662 23.7653 46.4366 24.735C46.2766 24.8052 46.0509 24.9047 45.7788 25.0245C44.2452 25.7002 41.2411 27.0238 40.2806 27.4029C37.8103 28.4095 35.3222 29.4824 32.9021 30.5325L32.8999 30.5335L27.8515 32.695L27.8484 32.6962C25.0834 33.8587 22.2735 35.0598 19.5636 36.2308L19.5616 36.2316L14.9121 38.2171L14.9109 38.2176L12.5139 39.2343L12.5123 39.235L5.95473 42.0441C11.5255 41.7887 19.4543 41.4141 22.1188 41.2838L22.119 41.2838C26.7926 41.0568 29.5331 44.2803 29.7951 44.6051C29.8558 44.6743 30.0676 44.912 30.3844 45.2677C31.9597 47.0358 36.1318 51.7186 37.2407 53.0923C37.614 53.4472 37.8126 53.4976 37.9067 53.5018C38.0189 53.507 38.1296 53.4622 38.4079 53.3131L38.4161 53.3087L38.4245 53.3046L38.6986 53.1707L39.954 52.242L39.8176 52.6459ZM11.8035 43.8844C11.9091 45.805 12.0236 47.8318 12.1216 49.4729C12.2217 51.1494 12.3028 52.3881 12.3386 52.7267C12.3793 52.8133 12.4632 52.9774 12.5938 53.2206C12.7515 53.514 12.9632 53.8972 13.2134 54.3421C13.7135 55.2314 14.3636 56.3615 15.0345 57.5027C15.7055 58.6441 16.3956 59.794 16.9758 60.7237C17.5674 61.6716 18.0178 62.346 18.2198 62.5747L18.2204 62.5753C18.566 62.9678 18.869 63.1535 19.1631 63.2523C19.4716 63.3561 19.8062 63.3779 20.2585 63.3848C21.337 63.3984 35.7366 62.9999 36.6288 62.9324L36.6303 62.9323C37.3683 62.8787 37.6926 62.7481 37.8359 62.6311C37.9353 62.55 37.9993 62.4333 38.0017 62.1288L37.9976 62.0742L37.9967 62.0626L37.9964 62.051L37.9964 62.0508L37.9964 62.0503L37.9963 62.0484L37.9961 62.0408L37.9952 62.0108L37.992 61.8953L37.9799 61.4669C37.9697 61.1034 37.9556 60.5967 37.9399 60.024C37.9118 59.0004 37.8788 57.7656 37.8541 56.7611C37.4526 56.5926 37.043 56.3158 36.6243 55.9076L36.6223 55.9056L36.6 55.8836L36.5485 55.8328L36.5182 55.7781C35.3902 54.3919 29.7962 47.8758 28.4411 46.2973C28.295 46.1271 28.1981 46.0143 28.1615 45.9715L28.1347 45.9451L28.1114 45.9135C28.1133 45.9161 28.111 45.9134 28.1044 45.9059C28.035 45.826 27.4919 45.2007 26.5501 44.5922C25.5269 43.9312 24.0579 43.3054 22.2301 43.3963C20.9737 43.4619 18.5531 43.5732 15.763 43.7016C14.4947 43.7599 13.1499 43.8218 11.8035 43.8844ZM31.0547 53.6136L31.5343 53.4722C31.613 53.7391 31.7034 54.0317 31.795 54.3281C31.9018 54.6739 32.0103 55.0249 32.1038 55.3469L32.1043 55.3487C32.1124 55.3767 32.121 55.4063 32.1299 55.437C32.19 55.6437 32.2664 55.9065 32.3066 56.1698C32.353 56.4741 32.3628 56.8417 32.2137 57.196C32.1289 57.4029 31.9786 57.5488 31.8391 57.6479C31.6969 57.7489 31.5377 57.8216 31.3896 57.874C31.0994 57.9768 30.7812 58.0261 30.5519 58.0268C30.3895 58.0298 29.4928 58.0635 28.4252 58.1037C27.2097 58.1494 25.7727 58.2034 24.9449 58.23C24.9442 58.23 24.9436 58.23 24.9429 58.23L22.1455 58.3422L22.1425 58.3425C22.1332 58.3432 22.1203 58.3441 22.1043 58.3451C22.0723 58.3471 22.0275 58.3494 21.9727 58.351C21.8638 58.3542 21.7123 58.3546 21.5423 58.3433C21.2295 58.3226 20.7578 58.2576 20.396 58.0198C20.0051 57.7774 19.7808 57.3366 19.6619 57.0494C19.5962 56.8905 19.5492 56.7443 19.5186 56.6381C19.5031 56.5846 19.4916 56.5403 19.4837 56.5084C19.4803 56.4947 19.4776 56.4832 19.4755 56.4742L19.4621 56.4297L19.4104 56.2568L19.2228 55.6316C19.0658 55.1094 18.8528 54.4017 18.628 53.6599C18.2496 52.4106 17.8414 51.0755 17.6115 50.3599H17.6113L17.4968 50.0193C17.4014 49.736 17.3146 49.447 17.2622 49.172C17.2105 48.9009 17.1852 48.6099 17.2389 48.3337C17.2955 48.0428 17.441 47.7677 17.7151 47.5697C17.9758 47.3814 18.3048 47.2976 18.669 47.2789C18.8761 47.2677 19.0751 47.2586 19.2719 47.2495C19.5295 47.2377 19.7833 47.226 20.0467 47.2103L20.0467 47.2102L20.055 47.2099C20.2501 47.2015 20.4453 47.193 20.6406 47.1846C21.9818 47.1267 23.3253 47.0687 24.6624 47.0254L24.6635 47.0254C25.1828 47.0096 25.7082 47.0008 26.2277 46.9922C26.4374 46.9886 26.6461 46.9852 26.8531 46.9812L26.8552 46.9812C26.921 46.9802 26.9899 46.9784 27.0614 46.9766C27.7242 46.9592 28.6106 46.936 29.3262 47.5254C29.7113 47.8364 29.9168 48.2033 30.0502 48.5636C30.1152 48.7392 30.164 48.9158 30.2067 49.0778C30.2162 49.1138 30.2254 49.1488 30.2343 49.1831C30.2669 49.3079 30.2969 49.423 30.3325 49.5399C30.7551 50.8509 31.1467 52.158 31.5342 53.4721L31.0547 53.6136Z" stroke="#BFBFBF"/>
<path d="M32.178 35.406L30.376 28.8593C30.155 28.0563 29.4248 27.5 28.592 27.5H19.4247C18.2193 27.5 17.3357 28.6342 17.6306 29.803L19.4459 36.9976C19.6653 37.8669 20.4763 38.4539 21.3706 38.3906L30.5247 37.7428C31.6898 37.6603 32.488 36.5322 32.178 35.406Z" fill="#595959"/>
<path d="M0.523376 24.4121C0.526489 24.4102 0.529686 24.4082 0.532944 24.4063C1.62743 24.3599 5.45489 24.1834 9.65265 23.9862C9.74313 25.6298 9.85963 27.6917 9.96556 29.4435C10.024 30.4098 10.0793 31.2829 10.1252 31.9399C10.1482 32.2682 10.169 32.5443 10.1868 32.7518C10.2029 32.9405 10.2194 33.1105 10.2376 33.198M0.523376 24.4121L10.7272 33.0966M0.523376 24.4121C0.537941 24.4391 0.560959 24.4763 0.597313 24.5263C0.711266 24.6831 0.902466 24.8955 1.22125 25.2364C1.22132 25.2365 1.2214 25.2366 1.22147 25.2366L1.67807 25.7225L1.67812 25.7225L1.68353 25.7284C2.29654 26.4021 4.85688 29.3399 7.11046 31.9326C8.32679 33.3299 9.41366 34.5719 9.964 35.2008C10.1263 35.3863 10.242 35.5184 10.3005 35.5855C10.3472 35.6335 10.472 35.6948 10.7144 35.6881C10.9451 35.6817 11.1804 35.6139 11.3269 35.5361M0.523376 24.4121L11.3269 35.5361M10.2376 33.198C10.2377 33.1986 10.2378 33.1993 10.238 33.2L10.7272 33.0966M10.2376 33.198C10.2374 33.1973 10.2373 33.1967 10.2372 33.196L10.7272 33.0966M10.2376 33.198C10.2633 33.3227 10.3324 33.4824 10.3972 33.6229C10.4712 33.7831 10.5709 33.9826 10.6899 34.2111C10.8767 34.5695 11.1163 35.0091 11.3903 35.4978M10.7272 33.0966C10.7746 33.3303 11.3185 34.3616 12.0604 35.6678M11.3903 35.4978C11.5024 35.4299 11.637 35.3478 11.7858 35.25L12.0604 35.6678M11.3903 35.4978C11.377 35.5058 11.3641 35.5136 11.3514 35.5213L11.3269 35.5361M11.3903 35.4978C11.4662 35.6332 11.5448 35.7724 11.6256 35.9147L12.0604 35.6678M12.0604 35.6678L11.3269 35.5361M78.1672 20.7367C78.232 20.5092 78.2523 20.2558 78.2523 20.0894L78.244 20.0619V19.9875V19.9779V19.9765L78.2346 18.3657C77.4445 18.7517 76.2517 19.3407 74.9943 19.9615L74.6804 20.1165C73.0004 20.9459 71.2579 21.8056 70.26 22.2874C70.2526 22.7826 70.2489 23.4627 70.2489 24.3874V25.1066C70.897 24.7712 71.7948 24.3084 72.7502 23.8158C74.9983 22.6568 77.5657 21.3332 77.9509 21.1183L77.9539 21.1167C78.0071 21.0874 78.0968 20.984 78.1672 20.7367ZM40.1366 41.4849C42.579 40.2823 48.5078 37.3643 54.1588 34.5899C57.3173 33.0392 60.3892 31.5333 62.7172 30.3967C65.0274 29.2688 66.639 28.4876 66.8436 28.4057L66.8476 28.4041C67.0986 28.3061 67.3652 28.1994 67.6004 27.8345C67.8506 27.4463 68.0997 26.7061 68.0997 25.2537L68.0997 24.3737L68.0997 24.3729L68.1013 23.324C57.3857 28.4323 41.4004 36.045 40.5692 36.4136L40.3664 36.5185C40.3654 36.519 40.3644 36.5196 40.3634 36.5201C40.2694 36.5704 40.1469 36.6353 40.0043 36.6993L40.1366 41.4849ZM38.4967 33.4313C38.4967 33.4314 38.4967 33.4315 38.8444 33.549L38.8131 33.4024L38.6635 33.2001C38.6066 33.2433 38.5719 33.2892 38.554 33.3157C38.5342 33.3451 38.5214 33.3709 38.5139 33.3875C38.5125 33.3907 38.5112 33.3937 38.5099 33.3967C38.5076 33.4021 38.5056 33.4072 38.5038 33.4118L38.4999 33.4222L38.4982 33.427L38.4974 33.4293L38.497 33.4304L38.4968 33.431L38.4967 33.4313ZM38.7405 33.1523L38.7747 33.2222L38.758 33.1439C38.752 33.1466 38.7462 33.1494 38.7405 33.1523ZM39.8176 32.6459C46.1495 29.6585 78.4101 14.3575 78.6852 14.2244L78.6851 14.2244L78.6934 14.2206L79.0448 14.0583L79.0448 14.0583L79.0488 14.0565C79.4631 13.8697 79.7398 13.7392 79.9313 13.5557C80.0885 13.4049 80.2103 13.1944 80.2103 12.7743C80.2103 12.5229 80.1624 12.1874 80.0413 11.7461L80.0413 11.7461L80.0406 11.7435C79.7797 10.772 79.2881 8.486 78.8304 6.35355L78.7985 6.20529C78.58 5.18709 78.3698 4.20777 78.1957 3.42145C78.0102 2.58331 77.8726 1.9976 77.8104 1.80318L77.8099 1.80179C77.7043 1.46868 77.5595 1.2378 77.3798 1.06885C77.199 0.898898 76.9555 0.765753 76.6136 0.670851C75.9047 0.474136 74.8712 0.464957 73.357 0.554824L73.3532 0.555022C70.2429 0.715555 67.1322 0.867757 64.0212 1.01163C64.021 1.01163 64.0209 1.01164 64.0207 1.01165L57.3089 1.33316C57.3084 1.33319 57.3078 1.33323 57.3072 1.33326C56.9967 1.3508 56.1535 1.48516 55.2775 1.64638C54.4026 1.8074 53.5732 1.98071 53.2974 2.06346C50.9402 2.77674 48.6662 3.7653 46.4366 4.73497C46.2766 4.80518 46.0509 4.90465 45.7788 5.02451C44.2452 5.70024 41.2411 7.02383 40.2806 7.40291C37.8103 8.40954 35.3222 9.48244 32.9021 10.5325L32.8999 10.5335L27.8515 12.695L27.8484 12.6962C25.0834 13.8587 22.2735 15.0598 19.5636 16.2308L19.5616 16.2316L14.9121 18.2171L14.9109 18.2176L12.5139 19.2343L12.5123 19.235L5.95473 22.0441C11.5255 21.7887 19.4543 21.4141 22.1188 21.2838L22.119 21.2838C26.7926 21.0568 29.5331 24.2803 29.7951 24.6051C29.8558 24.6743 30.0676 24.912 30.3844 25.2677C31.9597 27.0358 36.1318 31.7186 37.2407 33.0923C37.614 33.4472 37.8126 33.4976 37.9067 33.5018C38.0189 33.507 38.1296 33.4622 38.4079 33.3131L38.4161 33.3087L38.4245 33.3046L38.6986 33.1707L39.954 32.242L39.8176 32.6459ZM11.8035 23.8844C11.9091 25.805 12.0236 27.8318 12.1216 29.4729C12.2217 31.1494 12.3028 32.3881 12.3386 32.7267C12.3793 32.8133 12.4632 32.9774 12.5938 33.2206C12.7515 33.514 12.9632 33.8972 13.2134 34.3421C13.7135 35.2314 14.3636 36.3615 15.0345 37.5027C15.7055 38.6441 16.3956 39.794 16.9758 40.7237C17.5674 41.6716 18.0178 42.346 18.2198 42.5747L18.2204 42.5753C18.566 42.9678 18.869 43.1535 19.1631 43.2523C19.4716 43.3561 19.8062 43.3779 20.2585 43.3848C21.337 43.3984 35.7366 42.9999 36.6288 42.9324L36.6303 42.9323C37.3683 42.8787 37.6926 42.7481 37.8359 42.6311C37.9353 42.55 37.9993 42.4333 38.0017 42.1288L37.9976 42.0742L37.9967 42.0626L37.9964 42.051L37.9964 42.0508L37.9964 42.0503L37.9963 42.0484L37.9961 42.0408L37.9952 42.0108L37.992 41.8953L37.9799 41.4669C37.9697 41.1034 37.9556 40.5967 37.9399 40.024C37.9118 39.0004 37.8788 37.7656 37.8541 36.7611C37.4526 36.5926 37.043 36.3158 36.6243 35.9076L36.6223 35.9056L36.6 35.8836L36.5485 35.8328L36.5182 35.7781C35.3902 34.3919 29.7962 27.8758 28.4411 26.2973C28.295 26.1271 28.1981 26.0143 28.1615 25.9715L28.1347 25.9451L28.1114 25.9135C28.1133 25.9161 28.111 25.9134 28.1044 25.9059C28.035 25.826 27.4919 25.2007 26.5501 24.5922C25.5269 23.9312 24.0579 23.3054 22.2301 23.3963C20.9737 23.4619 18.5531 23.5732 15.763 23.7016C14.4947 23.7599 13.1499 23.8218 11.8035 23.8844ZM31.0547 33.6136L31.5343 33.4722C31.613 33.7391 31.7034 34.0317 31.795 34.3281C31.9018 34.6739 32.0103 35.0249 32.1038 35.3469L32.1043 35.3487C32.1124 35.3767 32.121 35.4063 32.1299 35.437C32.19 35.6437 32.2664 35.9065 32.3066 36.1698C32.353 36.4741 32.3628 36.8417 32.2137 37.196C32.1289 37.4029 31.9786 37.5488 31.8391 37.6479C31.6969 37.7489 31.5377 37.8216 31.3896 37.874C31.0994 37.9768 30.7812 38.0261 30.5519 38.0268C30.3895 38.0298 29.4928 38.0635 28.4252 38.1037C27.2097 38.1494 25.7727 38.2034 24.9449 38.23C24.9442 38.23 24.9436 38.23 24.9429 38.23L22.1455 38.3422L22.1425 38.3425C22.1332 38.3432 22.1203 38.3441 22.1043 38.3451C22.0723 38.3471 22.0275 38.3494 21.9727 38.351C21.8638 38.3542 21.7123 38.3546 21.5423 38.3433C21.2295 38.3226 20.7578 38.2576 20.396 38.0198C20.0051 37.7774 19.7808 37.3366 19.6619 37.0494C19.5962 36.8905 19.5492 36.7443 19.5186 36.6381C19.5031 36.5846 19.4916 36.5403 19.4837 36.5084C19.4803 36.4947 19.4776 36.4832 19.4755 36.4742L19.4621 36.4297L19.4104 36.2568L19.2228 35.6316C19.0658 35.1094 18.8528 34.4017 18.628 33.6599C18.2496 32.4106 17.8414 31.0755 17.6115 30.3599H17.6113L17.4968 30.0193C17.4014 29.736 17.3146 29.447 17.2622 29.172C17.2105 28.9009 17.1852 28.6099 17.2389 28.3337C17.2955 28.0428 17.441 27.7677 17.7151 27.5697C17.9758 27.3814 18.3048 27.2976 18.669 27.2789C18.8761 27.2677 19.0751 27.2586 19.2719 27.2495C19.5295 27.2377 19.7833 27.226 20.0467 27.2103L20.0467 27.2102L20.055 27.2099C20.2501 27.2015 20.4453 27.193 20.6406 27.1846C21.9818 27.1267 23.3253 27.0687 24.6624 27.0254L24.6635 27.0254C25.1828 27.0096 25.7082 27.0008 26.2277 26.9922C26.4374 26.9886 26.6461 26.9852 26.8531 26.9812L26.8552 26.9812C26.921 26.9802 26.9899 26.9784 27.0614 26.9766C27.7242 26.9592 28.6106 26.936 29.3262 27.5254C29.7113 27.8364 29.9168 28.2033 30.0502 28.5636C30.1152 28.7392 30.164 28.9158 30.2067 29.0778C30.2162 29.1138 30.2254 29.1488 30.2343 29.1831C30.2669 29.3079 30.2969 29.423 30.3325 29.5399C30.7551 30.8509 31.1467 32.158 31.5342 33.4721L31.0547 33.6136Z" fill="url(#paint2_linear)"/>
<path d="M0.523376 24.4121C0.526489 24.4102 0.529686 24.4082 0.532944 24.4063C1.62743 24.3599 5.45489 24.1834 9.65265 23.9862C9.74313 25.6298 9.85963 27.6917 9.96556 29.4435C10.024 30.4098 10.0793 31.2829 10.1252 31.9399C10.1482 32.2682 10.169 32.5443 10.1868 32.7518C10.2029 32.9405 10.2194 33.1105 10.2376 33.198M0.523376 24.4121L10.7272 33.0966M0.523376 24.4121C0.537941 24.4391 0.560959 24.4763 0.597313 24.5263C0.711266 24.6831 0.902466 24.8955 1.22125 25.2364C1.22132 25.2365 1.2214 25.2366 1.22147 25.2366L1.67807 25.7225L1.67812 25.7225L1.68353 25.7284C2.29654 26.4021 4.85688 29.3399 7.11046 31.9326C8.32679 33.3299 9.41366 34.5719 9.964 35.2008C10.1263 35.3863 10.242 35.5184 10.3005 35.5855C10.3472 35.6335 10.472 35.6948 10.7144 35.6881C10.9451 35.6817 11.1804 35.6139 11.3269 35.5361M0.523376 24.4121L11.3269 35.5361M10.2376 33.198C10.2377 33.1986 10.2378 33.1993 10.238 33.2L10.7272 33.0966M10.2376 33.198C10.2374 33.1973 10.2373 33.1967 10.2372 33.196L10.7272 33.0966M10.2376 33.198C10.2633 33.3227 10.3324 33.4824 10.3972 33.6229C10.4712 33.7831 10.5709 33.9826 10.6899 34.2111C10.8767 34.5695 11.1163 35.0091 11.3903 35.4978M10.7272 33.0966C10.7746 33.3303 11.3185 34.3616 12.0604 35.6678M11.3903 35.4978C11.5024 35.4299 11.637 35.3478 11.7858 35.25L12.0604 35.6678M11.3903 35.4978C11.377 35.5058 11.3641 35.5136 11.3514 35.5213L11.3269 35.5361M11.3903 35.4978C11.4662 35.6332 11.5448 35.7724 11.6256 35.9147L12.0604 35.6678M12.0604 35.6678L11.3269 35.5361M78.1672 20.7367C78.232 20.5092 78.2523 20.2558 78.2523 20.0894L78.244 20.0619V19.9875V19.9779V19.9765L78.2346 18.3657C77.4445 18.7517 76.2517 19.3407 74.9943 19.9615L74.6804 20.1165C73.0004 20.9459 71.2579 21.8056 70.26 22.2874C70.2526 22.7826 70.2489 23.4627 70.2489 24.3874V25.1066C70.897 24.7712 71.7948 24.3084 72.7502 23.8158C74.9983 22.6568 77.5657 21.3332 77.9509 21.1183L77.9539 21.1167C78.0071 21.0874 78.0968 20.984 78.1672 20.7367ZM40.1366 41.4849C42.579 40.2823 48.5078 37.3643 54.1588 34.5899C57.3173 33.0392 60.3892 31.5333 62.7172 30.3967C65.0274 29.2688 66.639 28.4876 66.8436 28.4057L66.8476 28.4041C67.0986 28.3061 67.3652 28.1994 67.6004 27.8345C67.8506 27.4463 68.0997 26.7061 68.0997 25.2537L68.0997 24.3737L68.0997 24.3729L68.1013 23.324C57.3857 28.4323 41.4004 36.045 40.5692 36.4136L40.3664 36.5185C40.3654 36.519 40.3644 36.5196 40.3634 36.5201C40.2694 36.5704 40.1469 36.6353 40.0043 36.6993L40.1366 41.4849ZM38.4967 33.4313C38.4967 33.4314 38.4967 33.4315 38.8444 33.549L38.8131 33.4024L38.6635 33.2001C38.6066 33.2433 38.5719 33.2892 38.554 33.3157C38.5342 33.3451 38.5214 33.3709 38.5139 33.3875C38.5125 33.3907 38.5112 33.3937 38.5099 33.3967C38.5076 33.4021 38.5056 33.4072 38.5038 33.4118L38.4999 33.4222L38.4982 33.427L38.4974 33.4293L38.497 33.4304L38.4968 33.431L38.4967 33.4313ZM38.7405 33.1523L38.7747 33.2222L38.758 33.1439C38.752 33.1466 38.7462 33.1494 38.7405 33.1523ZM39.8176 32.6459C46.1495 29.6585 78.4101 14.3575 78.6852 14.2244L78.6851 14.2244L78.6934 14.2206L79.0448 14.0583L79.0448 14.0583L79.0488 14.0565C79.4631 13.8697 79.7398 13.7392 79.9313 13.5557C80.0885 13.4049 80.2103 13.1944 80.2103 12.7743C80.2103 12.5229 80.1624 12.1874 80.0413 11.7461L80.0413 11.7461L80.0406 11.7435C79.7797 10.772 79.2881 8.486 78.8304 6.35355L78.7985 6.20529C78.58 5.18709 78.3698 4.20777 78.1957 3.42145C78.0102 2.58331 77.8726 1.9976 77.8104 1.80318L77.8099 1.80179C77.7043 1.46868 77.5595 1.2378 77.3798 1.06885C77.199 0.898898 76.9555 0.765753 76.6136 0.670851C75.9047 0.474136 74.8712 0.464957 73.357 0.554824L73.3532 0.555022C70.2429 0.715555 67.1322 0.867757 64.0212 1.01163C64.021 1.01163 64.0209 1.01164 64.0207 1.01165L57.3089 1.33316C57.3084 1.33319 57.3078 1.33323 57.3072 1.33326C56.9967 1.3508 56.1535 1.48516 55.2775 1.64638C54.4026 1.8074 53.5732 1.98071 53.2974 2.06346C50.9402 2.77674 48.6662 3.7653 46.4366 4.73497C46.2766 4.80518 46.0509 4.90465 45.7788 5.02451C44.2452 5.70024 41.2411 7.02383 40.2806 7.40291C37.8103 8.40954 35.3222 9.48244 32.9021 10.5325L32.8999 10.5335L27.8515 12.695L27.8484 12.6962C25.0834 13.8587 22.2735 15.0598 19.5636 16.2308L19.5616 16.2316L14.9121 18.2171L14.9109 18.2176L12.5139 19.2343L12.5123 19.235L5.95473 22.0441C11.5255 21.7887 19.4543 21.4141 22.1188 21.2838L22.119 21.2838C26.7926 21.0568 29.5331 24.2803 29.7951 24.6051C29.8558 24.6743 30.0676 24.912 30.3844 25.2677C31.9597 27.0358 36.1318 31.7186 37.2407 33.0923C37.614 33.4472 37.8126 33.4976 37.9067 33.5018C38.0189 33.507 38.1296 33.4622 38.4079 33.3131L38.4161 33.3087L38.4245 33.3046L38.6986 33.1707L39.954 32.242L39.8176 32.6459ZM11.8035 23.8844C11.9091 25.805 12.0236 27.8318 12.1216 29.4729C12.2217 31.1494 12.3028 32.3881 12.3386 32.7267C12.3793 32.8133 12.4632 32.9774 12.5938 33.2206C12.7515 33.514 12.9632 33.8972 13.2134 34.3421C13.7135 35.2314 14.3636 36.3615 15.0345 37.5027C15.7055 38.6441 16.3956 39.794 16.9758 40.7237C17.5674 41.6716 18.0178 42.346 18.2198 42.5747L18.2204 42.5753C18.566 42.9678 18.869 43.1535 19.1631 43.2523C19.4716 43.3561 19.8062 43.3779 20.2585 43.3848C21.337 43.3984 35.7366 42.9999 36.6288 42.9324L36.6303 42.9323C37.3683 42.8787 37.6926 42.7481 37.8359 42.6311C37.9353 42.55 37.9993 42.4333 38.0017 42.1288L37.9976 42.0742L37.9967 42.0626L37.9964 42.051L37.9964 42.0508L37.9964 42.0503L37.9963 42.0484L37.9961 42.0408L37.9952 42.0108L37.992 41.8953L37.9799 41.4669C37.9697 41.1034 37.9556 40.5967 37.9399 40.024C37.9118 39.0004 37.8788 37.7656 37.8541 36.7611C37.4526 36.5926 37.043 36.3158 36.6243 35.9076L36.6223 35.9056L36.6 35.8836L36.5485 35.8328L36.5182 35.7781C35.3902 34.3919 29.7962 27.8758 28.4411 26.2973C28.295 26.1271 28.1981 26.0143 28.1615 25.9715L28.1347 25.9451L28.1114 25.9135C28.1133 25.9161 28.111 25.9134 28.1044 25.9059C28.035 25.826 27.4919 25.2007 26.5501 24.5922C25.5269 23.9312 24.0579 23.3054 22.2301 23.3963C20.9737 23.4619 18.5531 23.5732 15.763 23.7016C14.4947 23.7599 13.1499 23.8218 11.8035 23.8844ZM31.0547 33.6136L31.5343 33.4722C31.613 33.7391 31.7034 34.0317 31.795 34.3281C31.9018 34.6739 32.0103 35.0249 32.1038 35.3469L32.1043 35.3487C32.1124 35.3767 32.121 35.4063 32.1299 35.437C32.19 35.6437 32.2664 35.9065 32.3066 36.1698C32.353 36.4741 32.3628 36.8417 32.2137 37.196C32.1289 37.4029 31.9786 37.5488 31.8391 37.6479C31.6969 37.7489 31.5377 37.8216 31.3896 37.874C31.0994 37.9768 30.7812 38.0261 30.5519 38.0268C30.3895 38.0298 29.4928 38.0635 28.4252 38.1037C27.2097 38.1494 25.7727 38.2034 24.9449 38.23C24.9442 38.23 24.9436 38.23 24.9429 38.23L22.1455 38.3422L22.1425 38.3425C22.1332 38.3432 22.1203 38.3441 22.1043 38.3451C22.0723 38.3471 22.0275 38.3494 21.9727 38.351C21.8638 38.3542 21.7123 38.3546 21.5423 38.3433C21.2295 38.3226 20.7578 38.2576 20.396 38.0198C20.0051 37.7774 19.7808 37.3366 19.6619 37.0494C19.5962 36.8905 19.5492 36.7443 19.5186 36.6381C19.5031 36.5846 19.4916 36.5403 19.4837 36.5084C19.4803 36.4947 19.4776 36.4832 19.4755 36.4742L19.4621 36.4297L19.4104 36.2568L19.2228 35.6316C19.0658 35.1094 18.8528 34.4017 18.628 33.6599C18.2496 32.4106 17.8414 31.0755 17.6115 30.3599H17.6113L17.4968 30.0193C17.4014 29.736 17.3146 29.447 17.2622 29.172C17.2105 28.9009 17.1852 28.6099 17.2389 28.3337C17.2955 28.0428 17.441 27.7677 17.7151 27.5697C17.9758 27.3814 18.3048 27.2976 18.669 27.2789C18.8761 27.2677 19.0751 27.2586 19.2719 27.2495C19.5295 27.2377 19.7833 27.226 20.0467 27.2103L20.0467 27.2102L20.055 27.2099C20.2501 27.2015 20.4453 27.193 20.6406 27.1846C21.9818 27.1267 23.3253 27.0687 24.6624 27.0254L24.6635 27.0254C25.1828 27.0096 25.7082 27.0008 26.2277 26.9922C26.4374 26.9886 26.6461 26.9852 26.8531 26.9812L26.8552 26.9812C26.921 26.9802 26.9899 26.9784 27.0614 26.9766C27.7242 26.9592 28.6106 26.936 29.3262 27.5254C29.7113 27.8364 29.9168 28.2033 30.0502 28.5636C30.1152 28.7392 30.164 28.9158 30.2067 29.0778C30.2162 29.1138 30.2254 29.1488 30.2343 29.1831C30.2669 29.3079 30.2969 29.423 30.3325 29.5399C30.7551 30.8509 31.1467 32.158 31.5342 33.4721L31.0547 33.6136Z" fill="url(#paint3_linear)"/>
<path d="M0.523376 24.4121C0.526489 24.4102 0.529686 24.4082 0.532944 24.4063C1.62743 24.3599 5.45489 24.1834 9.65265 23.9862C9.74313 25.6298 9.85963 27.6917 9.96556 29.4435C10.024 30.4098 10.0793 31.2829 10.1252 31.9399C10.1482 32.2682 10.169 32.5443 10.1868 32.7518C10.2029 32.9405 10.2194 33.1105 10.2376 33.198M0.523376 24.4121L10.7272 33.0966M0.523376 24.4121C0.537941 24.4391 0.560959 24.4763 0.597313 24.5263C0.711266 24.6831 0.902466 24.8955 1.22125 25.2364C1.22132 25.2365 1.2214 25.2366 1.22147 25.2366L1.67807 25.7225L1.67812 25.7225L1.68353 25.7284C2.29654 26.4021 4.85688 29.3399 7.11046 31.9326C8.32679 33.3299 9.41366 34.5719 9.964 35.2008C10.1263 35.3863 10.242 35.5184 10.3005 35.5855C10.3472 35.6335 10.472 35.6948 10.7144 35.6881C10.9451 35.6817 11.1804 35.6139 11.3269 35.5361M0.523376 24.4121L11.3269 35.5361M10.2376 33.198C10.2377 33.1986 10.2378 33.1993 10.238 33.2L10.7272 33.0966M10.2376 33.198C10.2374 33.1973 10.2373 33.1967 10.2372 33.196L10.7272 33.0966M10.2376 33.198C10.2633 33.3227 10.3324 33.4824 10.3972 33.6229C10.4712 33.7831 10.5709 33.9826 10.6899 34.2111C10.8767 34.5695 11.1163 35.0091 11.3903 35.4978M10.7272 33.0966C10.7746 33.3303 11.3185 34.3616 12.0604 35.6678M11.3903 35.4978C11.5024 35.4299 11.637 35.3478 11.7858 35.25L12.0604 35.6678M11.3903 35.4978C11.377 35.5058 11.3641 35.5136 11.3514 35.5213L11.3269 35.5361M11.3903 35.4978C11.4662 35.6332 11.5448 35.7724 11.6256 35.9147L12.0604 35.6678M12.0604 35.6678L11.3269 35.5361M78.1672 20.7367C78.232 20.5092 78.2523 20.2558 78.2523 20.0894L78.244 20.0619V19.9875V19.9779V19.9765L78.2346 18.3657C77.4445 18.7517 76.2517 19.3407 74.9943 19.9615L74.6804 20.1165C73.0004 20.9459 71.2579 21.8056 70.26 22.2874C70.2526 22.7826 70.2489 23.4627 70.2489 24.3874V25.1066C70.897 24.7712 71.7948 24.3084 72.7502 23.8158C74.9983 22.6568 77.5657 21.3332 77.9509 21.1183L77.9539 21.1167C78.0071 21.0874 78.0968 20.984 78.1672 20.7367ZM40.1366 41.4849C42.579 40.2823 48.5078 37.3643 54.1588 34.5899C57.3173 33.0392 60.3892 31.5333 62.7172 30.3967C65.0274 29.2688 66.639 28.4876 66.8436 28.4057L66.8476 28.4041C67.0986 28.3061 67.3652 28.1994 67.6004 27.8345C67.8506 27.4463 68.0997 26.7061 68.0997 25.2537L68.0997 24.3737L68.0997 24.3729L68.1013 23.324C57.3857 28.4323 41.4004 36.045 40.5692 36.4136L40.3664 36.5185C40.3654 36.519 40.3644 36.5196 40.3634 36.5201C40.2694 36.5704 40.1469 36.6353 40.0043 36.6993L40.1366 41.4849ZM38.4967 33.4313C38.4967 33.4314 38.4967 33.4315 38.8444 33.549L38.8131 33.4024L38.6635 33.2001C38.6066 33.2433 38.5719 33.2892 38.554 33.3157C38.5342 33.3451 38.5214 33.3709 38.5139 33.3875C38.5125 33.3907 38.5112 33.3937 38.5099 33.3967C38.5076 33.4021 38.5056 33.4072 38.5038 33.4118L38.4999 33.4222L38.4982 33.427L38.4974 33.4293L38.497 33.4304L38.4968 33.431L38.4967 33.4313ZM38.7405 33.1523L38.7747 33.2222L38.758 33.1439C38.752 33.1466 38.7462 33.1494 38.7405 33.1523ZM39.8176 32.6459C46.1495 29.6585 78.4101 14.3575 78.6852 14.2244L78.6851 14.2244L78.6934 14.2206L79.0448 14.0583L79.0448 14.0583L79.0488 14.0565C79.4631 13.8697 79.7398 13.7392 79.9313 13.5557C80.0885 13.4049 80.2103 13.1944 80.2103 12.7743C80.2103 12.5229 80.1624 12.1874 80.0413 11.7461L80.0413 11.7461L80.0406 11.7435C79.7797 10.772 79.2881 8.486 78.8304 6.35355L78.7985 6.20529C78.58 5.18709 78.3698 4.20777 78.1957 3.42145C78.0102 2.58331 77.8726 1.9976 77.8104 1.80318L77.8099 1.80179C77.7043 1.46868 77.5595 1.2378 77.3798 1.06885C77.199 0.898898 76.9555 0.765753 76.6136 0.670851C75.9047 0.474136 74.8712 0.464957 73.357 0.554824L73.3532 0.555022C70.2429 0.715555 67.1322 0.867757 64.0212 1.01163C64.021 1.01163 64.0209 1.01164 64.0207 1.01165L57.3089 1.33316C57.3084 1.33319 57.3078 1.33323 57.3072 1.33326C56.9967 1.3508 56.1535 1.48516 55.2775 1.64638C54.4026 1.8074 53.5732 1.98071 53.2974 2.06346C50.9402 2.77674 48.6662 3.7653 46.4366 4.73497C46.2766 4.80518 46.0509 4.90465 45.7788 5.02451C44.2452 5.70024 41.2411 7.02383 40.2806 7.40291C37.8103 8.40954 35.3222 9.48244 32.9021 10.5325L32.8999 10.5335L27.8515 12.695L27.8484 12.6962C25.0834 13.8587 22.2735 15.0598 19.5636 16.2308L19.5616 16.2316L14.9121 18.2171L14.9109 18.2176L12.5139 19.2343L12.5123 19.235L5.95473 22.0441C11.5255 21.7887 19.4543 21.4141 22.1188 21.2838L22.119 21.2838C26.7926 21.0568 29.5331 24.2803 29.7951 24.6051C29.8558 24.6743 30.0676 24.912 30.3844 25.2677C31.9597 27.0358 36.1318 31.7186 37.2407 33.0923C37.614 33.4472 37.8126 33.4976 37.9067 33.5018C38.0189 33.507 38.1296 33.4622 38.4079 33.3131L38.4161 33.3087L38.4245 33.3046L38.6986 33.1707L39.954 32.242L39.8176 32.6459ZM11.8035 23.8844C11.9091 25.805 12.0236 27.8318 12.1216 29.4729C12.2217 31.1494 12.3028 32.3881 12.3386 32.7267C12.3793 32.8133 12.4632 32.9774 12.5938 33.2206C12.7515 33.514 12.9632 33.8972 13.2134 34.3421C13.7135 35.2314 14.3636 36.3615 15.0345 37.5027C15.7055 38.6441 16.3956 39.794 16.9758 40.7237C17.5674 41.6716 18.0178 42.346 18.2198 42.5747L18.2204 42.5753C18.566 42.9678 18.869 43.1535 19.1631 43.2523C19.4716 43.3561 19.8062 43.3779 20.2585 43.3848C21.337 43.3984 35.7366 42.9999 36.6288 42.9324L36.6303 42.9323C37.3683 42.8787 37.6926 42.7481 37.8359 42.6311C37.9353 42.55 37.9993 42.4333 38.0017 42.1288L37.9976 42.0742L37.9967 42.0626L37.9964 42.051L37.9964 42.0508L37.9964 42.0503L37.9963 42.0484L37.9961 42.0408L37.9952 42.0108L37.992 41.8953L37.9799 41.4669C37.9697 41.1034 37.9556 40.5967 37.9399 40.024C37.9118 39.0004 37.8788 37.7656 37.8541 36.7611C37.4526 36.5926 37.043 36.3158 36.6243 35.9076L36.6223 35.9056L36.6 35.8836L36.5485 35.8328L36.5182 35.7781C35.3902 34.3919 29.7962 27.8758 28.4411 26.2973C28.295 26.1271 28.1981 26.0143 28.1615 25.9715L28.1347 25.9451L28.1114 25.9135C28.1133 25.9161 28.111 25.9134 28.1044 25.9059C28.035 25.826 27.4919 25.2007 26.5501 24.5922C25.5269 23.9312 24.0579 23.3054 22.2301 23.3963C20.9737 23.4619 18.5531 23.5732 15.763 23.7016C14.4947 23.7599 13.1499 23.8218 11.8035 23.8844ZM31.0547 33.6136L31.5343 33.4722C31.613 33.7391 31.7034 34.0317 31.795 34.3281C31.9018 34.6739 32.0103 35.0249 32.1038 35.3469L32.1043 35.3487C32.1124 35.3767 32.121 35.4063 32.1299 35.437C32.19 35.6437 32.2664 35.9065 32.3066 36.1698C32.353 36.4741 32.3628 36.8417 32.2137 37.196C32.1289 37.4029 31.9786 37.5488 31.8391 37.6479C31.6969 37.7489 31.5377 37.8216 31.3896 37.874C31.0994 37.9768 30.7812 38.0261 30.5519 38.0268C30.3895 38.0298 29.4928 38.0635 28.4252 38.1037C27.2097 38.1494 25.7727 38.2034 24.9449 38.23C24.9442 38.23 24.9436 38.23 24.9429 38.23L22.1455 38.3422L22.1425 38.3425C22.1332 38.3432 22.1203 38.3441 22.1043 38.3451C22.0723 38.3471 22.0275 38.3494 21.9727 38.351C21.8638 38.3542 21.7123 38.3546 21.5423 38.3433C21.2295 38.3226 20.7578 38.2576 20.396 38.0198C20.0051 37.7774 19.7808 37.3366 19.6619 37.0494C19.5962 36.8905 19.5492 36.7443 19.5186 36.6381C19.5031 36.5846 19.4916 36.5403 19.4837 36.5084C19.4803 36.4947 19.4776 36.4832 19.4755 36.4742L19.4621 36.4297L19.4104 36.2568L19.2228 35.6316C19.0658 35.1094 18.8528 34.4017 18.628 33.6599C18.2496 32.4106 17.8414 31.0755 17.6115 30.3599H17.6113L17.4968 30.0193C17.4014 29.736 17.3146 29.447 17.2622 29.172C17.2105 28.9009 17.1852 28.6099 17.2389 28.3337C17.2955 28.0428 17.441 27.7677 17.7151 27.5697C17.9758 27.3814 18.3048 27.2976 18.669 27.2789C18.8761 27.2677 19.0751 27.2586 19.2719 27.2495C19.5295 27.2377 19.7833 27.226 20.0467 27.2103L20.0467 27.2102L20.055 27.2099C20.2501 27.2015 20.4453 27.193 20.6406 27.1846C21.9818 27.1267 23.3253 27.0687 24.6624 27.0254L24.6635 27.0254C25.1828 27.0096 25.7082 27.0008 26.2277 26.9922C26.4374 26.9886 26.6461 26.9852 26.8531 26.9812L26.8552 26.9812C26.921 26.9802 26.9899 26.9784 27.0614 26.9766C27.7242 26.9592 28.6106 26.936 29.3262 27.5254C29.7113 27.8364 29.9168 28.2033 30.0502 28.5636C30.1152 28.7392 30.164 28.9158 30.2067 29.0778C30.2162 29.1138 30.2254 29.1488 30.2343 29.1831C30.2669 29.3079 30.2969 29.423 30.3325 29.5399C30.7551 30.8509 31.1467 32.158 31.5342 33.4721L31.0547 33.6136Z" stroke="#BFBFBF"/>
<defs>
<linearGradient id="paint0_linear" x1="75.2428" y1="83.6977" x2="22.7153" y2="13.8828" gradientUnits="userSpaceOnUse">
<stop stop-color="#777777"/>
<stop offset="0.53368" stop-color="#F9F9F9"/>
<stop offset="1" stop-color="white"/>
</linearGradient>
<linearGradient id="paint1_linear" x1="43.8793" y1="24.5833" x2="49.3411" y2="39.2831" gradientUnits="userSpaceOnUse">
<stop stop-color="#BEBEBE"/>
<stop offset="1" stop-color="white" stop-opacity="0"/>
</linearGradient>
<linearGradient id="paint2_linear" x1="75.2428" y1="63.6977" x2="22.7153" y2="-6.11723" gradientUnits="userSpaceOnUse">
<stop stop-color="#777777"/>
<stop offset="0.53368" stop-color="#F9F9F9"/>
<stop offset="1" stop-color="white"/>
</linearGradient>
<linearGradient id="paint3_linear" x1="43.8793" y1="4.58333" x2="49.3411" y2="19.2831" gradientUnits="userSpaceOnUse">
<stop stop-color="#BEBEBE"/>
<stop offset="1" stop-color="white" stop-opacity="0"/>
</linearGradient>
</defs>
</svg>
