<svg width="263" height="132" viewBox="0 0 263 132" fill="none" xmlns="http://www.w3.org/2000/svg">
<mask id="path-1-inside-1" fill="white">
<rect y="22.2039" width="262.747" height="37.0067" rx="1.85033"/>
</mask>
<rect y="22.2039" width="262.747" height="37.0067" rx="1.85033" fill="white" stroke="#8C8C8C" stroke-width="4" stroke-dasharray="2.2 2.2" mask="url(#path-1-inside-1)"/>
<mask id="path-2-inside-2" fill="white">
<rect y="58" width="262.747" height="37.0067" rx="1.85033"/>
</mask>
<rect y="58" width="262.747" height="37.0067" rx="1.85033" fill="white" stroke="#8C8C8C" stroke-width="4" stroke-dasharray="2.2 2.2" mask="url(#path-2-inside-2)"/>
<path d="M115.6 70.88H107.88L108.46 70.66C108.18 69.96 107.54 68.84 107 68.02L105.24 68.62C105.66 69.32 106.12 70.2 106.42 70.88H98.36V72.68H115.6V70.88ZM109.14 74.12C110.96 75.38 113.16 77.26 114.16 78.5L115.72 77.28C114.64 76.04 112.38 74.24 110.6 73.06L109.14 74.12ZM103.22 73.12C102.06 74.6 100.1 76.1 98.34 77.06C98.76 77.36 99.48 78.06 99.8 78.42C101.54 77.32 103.66 75.52 105.04 73.82L103.22 73.12ZM109.82 76.5C109.18 78.2 108.26 79.6 107.06 80.76C105.84 79.6 104.9 78.2 104.26 76.6L102.58 77.12C103.38 79 104.4 80.58 105.66 81.92C103.64 83.36 101.06 84.32 98.02 84.92C98.38 85.34 98.94 86.16 99.14 86.6C102.22 85.84 104.88 84.76 107.04 83.14C109.1 84.76 111.68 85.86 114.92 86.46C115.16 85.94 115.66 85.18 116.06 84.8C112.98 84.3 110.46 83.34 108.46 81.94C109.82 80.62 110.9 79.02 111.7 77.06L109.82 76.5ZM125.96 72.12V68.26H124.16V72.12H121.96V73.84H124.16V77.88C123.24 78.14 122.42 78.38 121.72 78.54L122.16 80.32L124.16 79.72V84.36C124.16 84.62 124.06 84.7 123.84 84.7C123.62 84.7 122.94 84.7 122.22 84.68C122.46 85.18 122.68 86.02 122.74 86.5C123.94 86.5 124.72 86.44 125.26 86.12C125.78 85.82 125.96 85.3 125.96 84.36V79.18L128.02 78.54L127.76 76.84L125.96 77.36V73.84H127.72V72.12H125.96ZM130.86 79.1V74.7H133.08V76.84C133.08 77.52 133.06 78.28 132.86 79.1H130.86ZM135.64 71.52C135.28 72.1 134.8 72.72 134.36 73.24H130.46C130.96 72.68 131.42 72.1 131.82 71.52H135.64ZM136.88 79.1H134.68C134.84 78.3 134.88 77.54 134.88 76.86V74.7H136.88V79.1ZM140.02 80.7V79.1H138.74V73.24H136.42C137.14 72.42 137.82 71.5 138.3 70.68L137.08 69.86L136.78 69.96H132.8C133.06 69.48 133.3 69.04 133.52 68.56L131.64 68.24C130.94 69.86 129.62 71.9 127.72 73.4C128.12 73.68 128.68 74.32 128.94 74.74L129.1 74.6V79.1H127.74V80.7H132.3C131.48 82.3 129.88 83.94 126.64 85.3C127.08 85.64 127.64 86.24 127.92 86.62C131.04 85.16 132.78 83.44 133.74 81.7C135.02 83.88 136.94 85.62 139.24 86.5C139.48 86.06 140.02 85.4 140.4 85.04C138.08 84.28 136.08 82.68 134.94 80.7H140.02ZM153.94 77.9C153.54 77.36 151.76 75.16 151.08 74.38V73.78H153.62V72.02H151.08V68.22H149.22V72.02H146.08V73.78H149.04C148.38 76.38 147.06 79.38 145.74 81.14C146.04 81.58 146.5 82.28 146.72 82.82C147.64 81.6 148.52 79.78 149.22 77.84V86.58H151.08V76.74C151.76 77.76 152.52 78.98 152.92 79.7L153.94 77.9ZM161.92 84.62C161.78 84.62 161.7 84.58 161.62 84.5C161.56 84.42 161.54 84.1 161.54 83.48V69.36H154.64V75.74C154.64 78.76 154.38 82.7 151.72 85.38C152.16 85.62 152.92 86.26 153.22 86.62C156.06 83.74 156.52 79.08 156.52 75.74V71.12H159.68V83.44C159.68 85.14 159.82 85.56 160.14 85.9C160.48 86.2 160.98 86.34 161.36 86.34H162.38C162.82 86.34 163.22 86.24 163.52 86.02C163.8 85.8 164 85.46 164.08 84.88C164.2 84.34 164.28 82.92 164.28 81.82C163.8 81.64 163.26 81.34 162.88 81.04C162.88 82.3 162.86 83.3 162.82 83.76C162.8 84.2 162.76 84.38 162.66 84.5C162.58 84.58 162.46 84.62 162.32 84.62H161.92Z" fill="#262626"/>
<mask id="path-4-inside-3" fill="white">
<rect y="94.2039" width="262.747" height="37.0067" rx="1.85033"/>
</mask>
<rect y="94.2039" width="262.747" height="37.0067" rx="1.85033" fill="white" stroke="#8C8C8C" stroke-width="4" stroke-dasharray="2.2 2.2" mask="url(#path-4-inside-3)"/>
<path d="M257.946 20.057L257.697 20.3537H255.745V19.3537H253.544V20.3537H251.342V19.3537H249.141V20.3537H246.94V19.3537H244.739V20.3537H242.537V19.3537H240.336V20.3537H238.135V19.3537H235.934V20.3537H233.732V19.3537H231.531V20.3537H229.33V19.3537H227.129V20.3537H224.927V19.3537H222.726V20.3537H220.525V19.3537H218.324V20.3537H216.122V19.3537H213.921V20.3537H211.72V19.3537H209.519V20.3537H207.317V19.3537H205.116V20.3537H202.915V19.3537H200.713V20.3537H198.512V19.3537H196.311V20.3537H194.11V19.3537H191.908V20.3537H189.707V19.3537H187.506V20.3537H185.305V19.3537H183.103V20.3537H180.902V19.3537H178.701V20.3537H176.5V19.3537H174.298V20.3537H172.097V19.3537H169.896V20.3537H167.695V19.3537H165.493V20.3537H163.292V19.3537H161.091V20.3537H158.889V19.3537H156.688V20.3537H154.487V19.3537H152.286V20.3537H150.084V19.3537H147.883V20.3537H145.682V19.3537H143.481V20.3537H141.279V19.3537H139.078V20.3537H136.877V19.3537H134.676V20.3537H132.474V19.3537H130.273V20.3537H128.072V19.3537H125.871V20.3537H123.669V19.3537H121.468V20.3537H119.267V19.3537H117.065V20.3537H114.864V19.3537H112.663V20.3537H110.462V19.3537H108.26V20.3537H106.059V19.3537H103.858V20.3537H101.657V19.3537H99.4554V20.3537H97.2541V19.3537H95.0528V20.3537H92.8516V19.3537H90.6503V20.3537H88.449V19.3537H86.2478V20.3537H84.0465V19.3537H81.8453V20.3537H79.644V19.3537H77.4427V20.3537H75.2415V19.3537H73.0402V20.3537H70.8389V19.3537H68.6377V20.3537H66.4364V19.3537H64.2351V20.3537H62.0339V19.3537H59.8326V20.3537H57.6313V19.3537H55.4301V20.3537H53.2288V19.3537H51.0276V20.3537H48.8263V19.3537H46.625V20.3537H44.4238V19.3537H42.2225V20.3537H40.0212V19.3537H37.82V20.3537H35.6187V19.3537H33.4175V20.3537H31.2162V19.3537H29.0149V20.3537H26.8137V19.3537H24.6124V20.3537H22.4111V19.3537H20.2099V20.3537H18.0086V19.3537H15.8073V20.3537H13.6061V19.3537H11.4048V20.3537H9.20355V19.3537H7.00229V20.3537H5.05067L4.80103 20.0567V19.4288L6.07397 18.3589L6.7174 19.1244L8.29959 17.7945L7.65616 17.029L9.23835 15.6991L9.88178 16.4647L11.464 15.1348L10.8205 14.3693L12.4027 13.0394L13.0462 13.8049L14.6283 12.4751L13.9849 11.7096L15.5671 10.3797L16.2105 11.1452L17.7927 9.81533L17.1493 9.04982L18.7315 7.71995L19.3749 8.48546L20.9571 7.15559L20.3137 6.39009L21.8959 5.06022L22.5393 5.82573L24.1215 4.49586L23.4781 3.73035L25.0603 2.40049L25.7037 3.166L26.4948 2.50106C26.7821 2.25957 27.0883 2.04528 27.4094 1.85961L26.9089 0.993895C27.6572 0.561264 28.4756 0.262972 29.3268 0.112697L29.5007 1.09747C29.866 1.03297 30.2383 1 30.6136 1H31.7088V0H33.8992V1H36.0897V0H38.2801V1H40.4705V0H42.661V1H44.8514V0H47.0419V1H49.2323V0H51.4227V1H53.6132V0H55.8036V1H57.9941V0H60.1845V1H62.3749V0H64.5654V1H66.7558V0H68.9463V1H71.1367V0H73.3271V1H75.5176V0H77.708V1H79.8984V0H82.0889V1H84.2793V0H86.4697V1H88.6602V0H90.8506V1H93.0411V0H95.2315V1H97.4219V0H99.6124V1H101.803V0H103.993V1H106.184V0H108.374V1H110.565V0H112.755V1H114.945V0H117.136V1H119.326V0H121.517V1H123.707V0H125.898V1H128.088V0H130.279V1H132.469V0H134.659V1H136.85V0H139.04V1H141.231V0H143.421V1H145.612V0H147.802V1H149.992V0H152.183V1H154.373V0H156.564V1H158.754V0H160.945V1H163.135V0H165.326V1H167.516V0H169.706V1H171.897V0H174.087V1H176.278V0H178.468V1H180.659V0H182.849V1H185.04V0H187.23V1H189.42V0H191.611V1H193.801V0H195.992V1H198.182V0H200.373V1H202.563V0H204.754V1H206.944V0H209.134V1H211.325V0H213.515V1H215.706V0H217.896V1H220.087V0H222.277V1H224.468V0H226.658V1H228.848V0H231.039V1H232.134C232.509 1 232.882 1.03297 233.247 1.09747L233.421 0.112696C234.272 0.262971 235.09 0.561263 235.839 0.993896L235.338 1.85961C235.659 2.04528 235.965 2.25957 236.253 2.50106L237.044 3.166L237.687 2.40049L239.269 3.73035L238.626 4.49586L240.208 5.82573L240.852 5.06022L242.434 6.39009L241.79 7.15559L243.373 8.48546L244.016 7.71996L245.598 9.04982L244.955 9.81533L246.537 11.1452L247.18 10.3797L248.763 11.7096L248.119 12.4751L249.701 13.8049L250.345 13.0394L251.927 14.3693L251.284 15.1348L252.866 16.4647L253.509 15.6991L255.091 17.029L254.448 17.7945L256.03 19.1244L256.674 18.3589L257.946 19.4286V20.057Z" fill="white" stroke="#8C8C8C" stroke-width="2" stroke-dasharray="2.2 2.2"/>
</svg>
