<svg width="263" height="132" viewBox="0 0 263 132" fill="none" xmlns="http://www.w3.org/2000/svg">
<rect x="0.5551" y="22.759" width="261.637" height="35.8965" rx="1.29523" fill="white" stroke="#8C8C8C" stroke-width="1.1102"/>
<rect x="0.5551" y="58.5551" width="261.637" height="35.8965" rx="1.29523" fill="white" stroke="#8C8C8C" stroke-width="1.1102"/>
<path d="M115.6 70.88H107.88L108.46 70.66C108.18 69.96 107.54 68.84 107 68.02L105.24 68.62C105.66 69.32 106.12 70.2 106.42 70.88H98.36V72.68H115.6V70.88ZM109.14 74.12C110.96 75.38 113.16 77.26 114.16 78.5L115.72 77.28C114.64 76.04 112.38 74.24 110.6 73.06L109.14 74.12ZM103.22 73.12C102.06 74.6 100.1 76.1 98.34 77.06C98.76 77.36 99.48 78.06 99.8 78.42C101.54 77.32 103.66 75.52 105.04 73.82L103.22 73.12ZM109.82 76.5C109.18 78.2 108.26 79.6 107.06 80.76C105.84 79.6 104.9 78.2 104.26 76.6L102.58 77.12C103.38 79 104.4 80.58 105.66 81.92C103.64 83.36 101.06 84.32 98.02 84.92C98.38 85.34 98.94 86.16 99.14 86.6C102.22 85.84 104.88 84.76 107.04 83.14C109.1 84.76 111.68 85.86 114.92 86.46C115.16 85.94 115.66 85.18 116.06 84.8C112.98 84.3 110.46 83.34 108.46 81.94C109.82 80.62 110.9 79.02 111.7 77.06L109.82 76.5ZM125.96 72.12V68.26H124.16V72.12H121.96V73.84H124.16V77.88C123.24 78.14 122.42 78.38 121.72 78.54L122.16 80.32L124.16 79.72V84.36C124.16 84.62 124.06 84.7 123.84 84.7C123.62 84.7 122.94 84.7 122.22 84.68C122.46 85.18 122.68 86.02 122.74 86.5C123.94 86.5 124.72 86.44 125.26 86.12C125.78 85.82 125.96 85.3 125.96 84.36V79.18L128.02 78.54L127.76 76.84L125.96 77.36V73.84H127.72V72.12H125.96ZM130.86 79.1V74.7H133.08V76.84C133.08 77.52 133.06 78.28 132.86 79.1H130.86ZM135.64 71.52C135.28 72.1 134.8 72.72 134.36 73.24H130.46C130.96 72.68 131.42 72.1 131.82 71.52H135.64ZM136.88 79.1H134.68C134.84 78.3 134.88 77.54 134.88 76.86V74.7H136.88V79.1ZM140.02 80.7V79.1H138.74V73.24H136.42C137.14 72.42 137.82 71.5 138.3 70.68L137.08 69.86L136.78 69.96H132.8C133.06 69.48 133.3 69.04 133.52 68.56L131.64 68.24C130.94 69.86 129.62 71.9 127.72 73.4C128.12 73.68 128.68 74.32 128.94 74.74L129.1 74.6V79.1H127.74V80.7H132.3C131.48 82.3 129.88 83.94 126.64 85.3C127.08 85.64 127.64 86.24 127.92 86.62C131.04 85.16 132.78 83.44 133.74 81.7C135.02 83.88 136.94 85.62 139.24 86.5C139.48 86.06 140.02 85.4 140.4 85.04C138.08 84.28 136.08 82.68 134.94 80.7H140.02ZM153.94 77.9C153.54 77.36 151.76 75.16 151.08 74.38V73.78H153.62V72.02H151.08V68.22H149.22V72.02H146.08V73.78H149.04C148.38 76.38 147.06 79.38 145.74 81.14C146.04 81.58 146.5 82.28 146.72 82.82C147.64 81.6 148.52 79.78 149.22 77.84V86.58H151.08V76.74C151.76 77.76 152.52 78.98 152.92 79.7L153.94 77.9ZM161.92 84.62C161.78 84.62 161.7 84.58 161.62 84.5C161.56 84.42 161.54 84.1 161.54 83.48V69.36H154.64V75.74C154.64 78.76 154.38 82.7 151.72 85.38C152.16 85.62 152.92 86.26 153.22 86.62C156.06 83.74 156.52 79.08 156.52 75.74V71.12H159.68V83.44C159.68 85.14 159.82 85.56 160.14 85.9C160.48 86.2 160.98 86.34 161.36 86.34H162.38C162.82 86.34 163.22 86.24 163.52 86.02C163.8 85.8 164 85.46 164.08 84.88C164.2 84.34 164.28 82.92 164.28 81.82C163.8 81.64 163.26 81.34 162.88 81.04C162.88 82.3 162.86 83.3 162.82 83.76C162.8 84.2 162.76 84.38 162.66 84.5C162.58 84.58 162.46 84.62 162.32 84.62H161.92Z" fill="#262626"/>
<rect x="0.5551" y="94.759" width="261.637" height="35.8965" rx="1.29523" fill="white" stroke="#8C8C8C" stroke-width="1.1102"/>
<path d="M25.8514 1.73556C27.185 0.614581 28.8714 0 30.6136 0H232.134C233.876 0 235.563 0.61458 236.896 1.73555L259.047 20.3537H3.70068L25.8514 1.73556Z" fill="#A9ABAF"/>
</svg>
