<svg width="263" height="60" viewBox="0 0 263 60" fill="none" xmlns="http://www.w3.org/2000/svg">
<mask id="path-1-inside-1" fill="white">
<rect y="22" width="262.747" height="37.0067" rx="1.85033"/>
</mask>
<rect y="22" width="262.747" height="37.0067" rx="1.85033" fill="white" stroke="#8C8C8C" stroke-width="4" stroke-dasharray="2.2 2.2" mask="url(#path-1-inside-1)"/>
<path d="M103.82 42.08V40.24H95.96V37.2H102.42V35.36H95.96V32.22H94V35.36H87.7V37.2H94V40.24H86.26V42.08H93.02C91.26 44.5 88.4 46.78 85.68 47.98C86.1 48.38 86.72 49.1 87.04 49.56C89.54 48.28 92.1 46.12 94 43.66V50.56H95.96V43.58C97.86 46.06 100.42 48.32 102.94 49.58C103.28 49.1 103.86 48.36 104.3 47.98C101.58 46.8 98.7 44.5 96.92 42.08H103.82ZM119.26 41.9V40.14H115.72C115.72 39.94 115.72 39.74 115.72 39.56V36.56H118.7V34.82H113.24C113.44 34.1 113.62 33.34 113.78 32.58L112 32.24C111.54 34.58 110.76 36.92 109.62 38.38C110.06 38.64 110.8 39.14 111.14 39.46C111.68 38.66 112.2 37.66 112.62 36.56H113.84V39.54V40.14H109.92V41.9H113.72C113.42 44.4 112.5 47.12 109.68 49.12C110.06 49.4 110.74 50.14 111 50.54C113.12 49 114.3 47 114.96 44.94C116.02 46.16 117.36 47.88 118.02 48.88L119.3 47.28C118.72 46.62 116.42 44.02 115.42 43.04C115.5 42.66 115.54 42.28 115.6 41.9H119.26ZM121.64 46.76V35.7H125.28V46.76H121.64ZM119.84 33.94V50H121.64V48.5H125.28V49.78H127.16V33.94H119.84ZM144.36 34.64H147.52V37.36C147.52 39.08 147.86 39.74 149.46 39.74H150.86C151.26 39.74 151.72 39.72 151.98 39.62C151.92 39.2 151.86 38.54 151.84 38.06C151.58 38.14 151.12 38.18 150.84 38.18H149.62C149.32 38.18 149.28 37.98 149.28 37.42V32.92H142.64V35.08C142.64 36.5 142.24 38.06 139.7 39.2C140.04 39.46 140.68 40.2 140.9 40.56C143.76 39.24 144.36 37.06 144.36 35.14V34.64ZM139.64 35.52C139 34.7 137.62 33.42 136.54 32.54L135.34 33.68C136.42 34.62 137.78 35.96 138.38 36.82L139.64 35.52ZM138.3 46.52V38.38H133.92V40.16H136.52V46.82C136.52 47.72 135.92 48.38 135.52 48.68C135.86 49.02 136.32 49.8 136.5 50.24C136.82 49.82 137.4 49.34 140.98 46.52C140.76 46.16 140.46 45.46 140.3 44.98L138.3 46.52ZM148.68 42.64C148 44.04 147.06 45.18 145.92 46.12C144.72 45.14 143.76 43.98 143.08 42.64H148.68ZM149.88 40.84L149.6 40.9H140.68V42.64H141.88L141.36 42.82C142.14 44.5 143.16 45.96 144.42 47.14C143 48.02 141.34 48.6 139.6 48.96C139.94 49.36 140.34 50.08 140.5 50.58C142.44 50.08 144.26 49.36 145.86 48.32C147.34 49.36 149.08 50.14 151.1 50.64C151.34 50.12 151.84 49.36 152.24 48.98C150.42 48.62 148.78 48 147.38 47.14C149 45.7 150.3 43.8 151.04 41.34L149.88 40.84ZM165.98 43.48V45.08H162.22V43.48H165.98ZM171.54 45.08H167.9V43.48H171.54V45.08ZM167.9 48.36V46.54H171.54V48.36H167.9ZM162.22 48.36V46.54H165.98V48.36H162.22ZM160.3 50.58H162.22V49.98H171.54V50.54H173.56V41.88H160.3V50.58ZM163.88 35.5H170.26C169.38 36.38 168.24 37.14 166.94 37.8C165.64 37.18 164.56 36.48 163.72 35.66L163.88 35.5ZM172.08 33.8L171.78 33.88H165.4C165.72 33.44 166.04 33.02 166.34 32.56L164.34 32.16C163.32 33.86 161.38 35.74 158.48 37.06C158.88 37.34 159.46 37.98 159.74 38.42C160.72 37.92 161.62 37.36 162.4 36.76C163.14 37.46 164 38.12 164.96 38.68C162.68 39.54 160.12 40.14 157.62 40.42C157.9 40.86 158.28 41.66 158.42 42.18C161.34 41.72 164.34 40.94 166.96 39.7C169.42 40.8 172.3 41.54 175.3 41.92C175.56 41.4 176.04 40.62 176.46 40.2C173.78 39.94 171.18 39.4 168.98 38.62C170.76 37.52 172.28 36.16 173.32 34.52L172.08 33.8Z" fill="#262626"/>
<path d="M8.77785 19.3537C8.57053 19.3537 8.41115 19.2938 8.28889 19.2076L7.71298 20.0252C7.08528 19.583 6.78752 18.7659 6.98351 18.0236L7.95039 18.2788C7.98856 18.1342 8.07201 17.9858 8.23072 17.8524L9.05625 17.1585L8.41282 16.393L10.0639 15.0053L10.7073 15.7708L12.3584 14.383L11.7149 13.6175L13.366 12.2298L14.0094 12.9953L15.6605 11.6075L15.0171 10.842L16.6681 9.45427L17.3115 10.2198L18.9626 8.83203L18.3192 8.06652L19.9702 6.67877L20.6137 7.44428L22.2647 6.05652L21.6213 5.29102L23.2723 3.90327L23.9158 4.66877L25.5668 3.28102L24.9234 2.51551L26.5745 1.12776L27.2179 1.89327L28.0434 1.1994C28.0816 1.1673 28.1223 1.13884 28.1649 1.11419L27.6644 0.248474C27.8514 0.140316 28.0561 0.0657432 28.2689 0.0281744L28.4427 1.01294C28.4912 1.00438 28.5407 1 28.5905 1H29.684V0H31.8709V1H34.0577V0H36.2446V1H38.4315V0H40.6184V1H42.8052V0H44.9921V1H47.179V0H49.3659V1H51.5528V0H53.7396V1H55.9265V0H58.1134V1H60.3003V0H62.4871V1H64.674V0H66.8609V1H69.0478V0H71.2346V1H73.4215V0H75.6084V1H77.7953V0H79.9822V1H82.169V0H84.3559V1H86.5428V0H88.7297V1H90.9165V0H93.1034V1H95.2903V0H97.4772V1H99.6641V0H101.851V1H104.038V0H106.225V1H108.412V0H110.598V1H112.785V0H114.972V1H117.159V0H119.346V1H121.533V0H123.72V1H125.907V0H128.093V1H130.28V0H132.467V1H134.654V0H136.841V1H139.028V0H141.215V1H143.402V0H145.588V1H147.775V0H149.962V1H152.149V0H154.336V1H156.523V0H158.71V1H160.897V0H163.083V1H165.27V0H167.457V1H169.644V0H171.831V1H174.018V0H176.205V1H178.392V0H180.578V1H182.765V0H184.952V1H187.139V0H189.326V1H191.513V0H193.7V1H195.887V0H198.073V1H200.26V0H202.447V1H204.634V0H206.821V1H209.008V0H211.195V1H213.382V0H215.568V1H217.755V0H219.942V1H222.129V0H224.316V1H226.503V0H228.69V1H230.877V0H233.063V1H234.157C234.207 1 234.256 1.00438 234.305 1.01294L234.479 0.0281737C234.691 0.0657421 234.896 0.140314 235.083 0.248472L234.583 1.11419C234.625 1.13884 234.666 1.1673 234.704 1.1994L235.53 1.89327L236.173 1.12777L237.824 2.51552L237.181 3.28102L238.832 4.66877L239.475 3.90327L241.126 5.29102L240.483 6.05652L242.134 7.44427L242.777 6.67877L244.428 8.06652L243.785 8.83203L245.436 10.2198L246.079 9.45427L247.73 10.842L247.087 11.6075L248.738 12.9953L249.382 12.2298L251.033 13.6175L250.389 14.383L252.04 15.7708L252.684 15.0053L254.335 16.393L253.691 17.1585L254.517 17.8524C254.676 17.9858 254.759 18.1342 254.797 18.2788L255.764 18.0236C255.96 18.7659 255.662 19.583 255.035 20.0252L254.459 19.2076C254.336 19.2938 254.177 19.3537 253.97 19.3537H252.875V20.3537H250.686V19.3537H248.497V20.3537H246.307V19.3537H244.118V20.3537H241.929V19.3537H239.74V20.3537H237.551V19.3537H235.361V20.3537H233.172V19.3537H230.983V20.3537H228.794V19.3537H226.605V20.3537H224.415V19.3537H222.226V20.3537H220.037V19.3537H217.848V20.3537H215.658V19.3537H213.469V20.3537H211.28V19.3537H209.091V20.3537H206.902V19.3537H204.712V20.3537H202.523V19.3537H200.334V20.3537H198.145V19.3537H195.956V20.3537H193.766V19.3537H191.577V20.3537H189.388V19.3537H187.199V20.3537H185.009V19.3537H182.82V20.3537H180.631V19.3537H178.442V20.3537H176.253V19.3537H174.063V20.3537H171.874V19.3537H169.685V20.3537H167.496V19.3537H165.307V20.3537H163.117V19.3537H160.928V20.3537H158.739V19.3537H156.55V20.3537H154.361V19.3537H152.171V20.3537H149.982V19.3537H147.793V20.3537H145.604V19.3537H143.415V20.3537H141.225V19.3537H139.036V20.3537H136.847V19.3537H134.658V20.3537H132.468V19.3537H130.279V20.3537H128.09V19.3537H125.901V20.3537H123.712V19.3537H121.522V20.3537H119.333V19.3537H117.144V20.3537H114.955V19.3537H112.766V20.3537H110.576V19.3537H108.387V20.3537H106.198V19.3537H104.009V20.3537H101.82V19.3537H99.6303V20.3537H97.4411V19.3537H95.2519V20.3537H93.0627V19.3537H90.8735V20.3537H88.6843V19.3537H86.4951V20.3537H84.3059V19.3537H82.1167V20.3537H79.9274V19.3537H77.7382V20.3537H75.549V19.3537H73.3598V20.3537H71.1706V19.3537H68.9814V20.3537H66.7922V19.3537H64.603V20.3537H62.4138V19.3537H60.2246V20.3537H58.0354V19.3537H55.8462V20.3537H53.6569V19.3537H51.4677V20.3537H49.2785V19.3537H47.0893V20.3537H44.9001V19.3537H42.7109V20.3537H40.5217V19.3537H38.3325V20.3537H36.1433V19.3537H33.9541V20.3537H31.7648V19.3537H29.5756V20.3537H27.3864V19.3537H25.1972V20.3537H23.008V19.3537H20.8188V20.3537H18.6296V19.3537H16.4404V20.3537H14.2512V19.3537H12.062V20.3537H9.87276V19.3537H8.77785Z" fill="white" stroke="#8C8C8C" stroke-width="2" stroke-dasharray="2.2 2.2"/>
</svg>
