<svg width="263" height="60" viewBox="0 0 263 60" fill="none" xmlns="http://www.w3.org/2000/svg">
<mask id="path-1-inside-1" fill="white">
<rect y="22" width="262.747" height="37.0067" rx="1.85033"/>
</mask>
<rect y="22" width="262.747" height="37.0067" rx="1.85033" fill="white" stroke="#8C8C8C" stroke-width="4" stroke-dasharray="2.2 2.2" mask="url(#path-1-inside-1)"/>
<path d="M103.82 42.08V40.24H95.96V37.2H102.42V35.36H95.96V32.22H94V35.36H87.7V37.2H94V40.24H86.26V42.08H93.02C91.26 44.5 88.4 46.78 85.68 47.98C86.1 48.38 86.72 49.1 87.04 49.56C89.54 48.28 92.1 46.12 94 43.66V50.56H95.96V43.58C97.86 46.06 100.42 48.32 102.94 49.58C103.28 49.1 103.86 48.36 104.3 47.98C101.58 46.8 98.7 44.5 96.92 42.08H103.82ZM119.26 41.9V40.14H115.72C115.72 39.94 115.72 39.74 115.72 39.56V36.56H118.7V34.82H113.24C113.44 34.1 113.62 33.34 113.78 32.58L112 32.24C111.54 34.58 110.76 36.92 109.62 38.38C110.06 38.64 110.8 39.14 111.14 39.46C111.68 38.66 112.2 37.66 112.62 36.56H113.84V39.54V40.14H109.92V41.9H113.72C113.42 44.4 112.5 47.12 109.68 49.12C110.06 49.4 110.74 50.14 111 50.54C113.12 49 114.3 47 114.96 44.94C116.02 46.16 117.36 47.88 118.02 48.88L119.3 47.28C118.72 46.62 116.42 44.02 115.42 43.04C115.5 42.66 115.54 42.28 115.6 41.9H119.26ZM121.64 46.76V35.7H125.28V46.76H121.64ZM119.84 33.94V50H121.64V48.5H125.28V49.78H127.16V33.94H119.84ZM144.36 34.64H147.52V37.36C147.52 39.08 147.86 39.74 149.46 39.74H150.86C151.26 39.74 151.72 39.72 151.98 39.62C151.92 39.2 151.86 38.54 151.84 38.06C151.58 38.14 151.12 38.18 150.84 38.18H149.62C149.32 38.18 149.28 37.98 149.28 37.42V32.92H142.64V35.08C142.64 36.5 142.24 38.06 139.7 39.2C140.04 39.46 140.68 40.2 140.9 40.56C143.76 39.24 144.36 37.06 144.36 35.14V34.64ZM139.64 35.52C139 34.7 137.62 33.42 136.54 32.54L135.34 33.68C136.42 34.62 137.78 35.96 138.38 36.82L139.64 35.52ZM138.3 46.52V38.38H133.92V40.16H136.52V46.82C136.52 47.72 135.92 48.38 135.52 48.68C135.86 49.02 136.32 49.8 136.5 50.24C136.82 49.82 137.4 49.34 140.98 46.52C140.76 46.16 140.46 45.46 140.3 44.98L138.3 46.52ZM148.68 42.64C148 44.04 147.06 45.18 145.92 46.12C144.72 45.14 143.76 43.98 143.08 42.64H148.68ZM149.88 40.84L149.6 40.9H140.68V42.64H141.88L141.36 42.82C142.14 44.5 143.16 45.96 144.42 47.14C143 48.02 141.34 48.6 139.6 48.96C139.94 49.36 140.34 50.08 140.5 50.58C142.44 50.08 144.26 49.36 145.86 48.32C147.34 49.36 149.08 50.14 151.1 50.64C151.34 50.12 151.84 49.36 152.24 48.98C150.42 48.62 148.78 48 147.38 47.14C149 45.7 150.3 43.8 151.04 41.34L149.88 40.84ZM165.98 43.48V45.08H162.22V43.48H165.98ZM171.54 45.08H167.9V43.48H171.54V45.08ZM167.9 48.36V46.54H171.54V48.36H167.9ZM162.22 48.36V46.54H165.98V48.36H162.22ZM160.3 50.58H162.22V49.98H171.54V50.54H173.56V41.88H160.3V50.58ZM163.88 35.5H170.26C169.38 36.38 168.24 37.14 166.94 37.8C165.64 37.18 164.56 36.48 163.72 35.66L163.88 35.5ZM172.08 33.8L171.78 33.88H165.4C165.72 33.44 166.04 33.02 166.34 32.56L164.34 32.16C163.32 33.86 161.38 35.74 158.48 37.06C158.88 37.34 159.46 37.98 159.74 38.42C160.72 37.92 161.62 37.36 162.4 36.76C163.14 37.46 164 38.12 164.96 38.68C162.68 39.54 160.12 40.14 157.62 40.42C157.9 40.86 158.28 41.66 158.42 42.18C161.34 41.72 164.34 40.94 166.96 39.7C169.42 40.8 172.3 41.54 175.3 41.92C175.56 41.4 176.04 40.62 176.46 40.2C173.78 39.94 171.18 39.4 168.98 38.62C170.76 37.52 172.28 36.16 173.32 34.52L172.08 33.8Z" fill="#262626"/>
<path d="M25.8514 1.73556C27.185 0.614581 28.8714 0 30.6136 0H232.134C233.876 0 235.563 0.61458 236.896 1.73555L259.047 20.3537H3.70068L25.8514 1.73556Z" fill="url(#paint0_angular)"/>
<defs>
<radialGradient id="paint0_angular" cx="0" cy="0" r="1" gradientUnits="userSpaceOnUse" gradientTransform="translate(131.374 10) rotate(90) scale(22 276)">
<stop stop-color="#74767A"/>
<stop offset="1" stop-color="white"/>
</radialGradient>
</defs>
</svg>
